{"glyphs":{"0":{"ha":708,"x_min":97,"x_max":613,"o":"m 358 860 q 536 754 468 860 q 611 417 611 638 q 536 79 611 196 q 358 -26 468 -26 q 176 78 247 -26 q 97 417 97 196 q 176 756 97 638 q 358 860 247 860 m 358 842 q 192 744 257 842 q 115 417 115 631 q 192 89 115 203 q 358 -8 257 -8 q 521 89 458 -8 q 593 417 593 201 q 521 744 593 632 q 358 842 458 842 z "},"1":{"ha":399,"x_min":97,"x_max":303,"o":"m 107 860 l 293 860 q 301 850 301 860 l 301 -17 q 292 -26 301 -26 q 283 -17 283 -26 l 283 842 l 107 842 q 97 851 97 842 q 107 860 97 860 z "},"2":{"ha":769,"x_min":97,"x_max":674,"o":"m 386 860 q 606 768 542 860 q 643 628 643 713 q 571 418 643 522 q 378 204 499 314 q 378 204 378 204 q 243 88 328 158 q 132 -8 158 17 l 663 -8 l 664 -8 q 672 -17 672 -8 q 664 -26 672 -26 l 663 -26 l 107 -26 q 97 -17 97 -26 q 100 -11 97 -14 q 222 96 129 18 q 365 218 315 174 q 625 628 625 453 q 590 758 625 707 q 386 842 532 842 l 386 842 q 164 753 263 842 q 157 750 161 750 q 149 760 149 750 q 151 767 149 764 q 386 860 256 861 z "},"3":{"ha":732,"x_min":97,"x_max":636,"o":"m 317 860 q 518 821 446 860 q 618 639 618 767 q 579 526 618 572 q 486 465 546 488 q 393 444 446 451 q 508 410 460 432 q 635 217 635 349 q 528 22 635 85 q 317 -26 444 -26 q 106 38 208 -26 l 97 42 l 107 58 l 115 53 q 317 -8 213 -8 q 518 39 439 -8 q 617 217 617 96 q 500 393 617 338 q 254 436 408 436 l 244 436 l 244 454 l 254 454 q 479 483 401 454 q 565 539 536 503 q 599 639 599 578 q 510 804 599 756 q 317 842 440 842 q 115 781 221 842 l 107 776 l 97 792 l 106 796 q 317 860 215 860 z "},"4":{"ha":708,"x_min":97,"x_max":613,"o":"m 168 860 q 178 850 178 860 q 178 849 178 850 l 117 426 l 593 426 l 593 850 q 603 860 593 860 q 611 850 611 860 l 611 418 q 611 417 611 418 q 611 414 611 415 l 611 -17 q 602 -26 611 -26 q 593 -17 593 -26 l 593 407 l 107 407 q 97 417 97 407 q 97 418 97 417 l 160 851 q 168 860 160 860 z "},"5":{"ha":761,"x_min":97,"x_max":665,"o":"m 218 860 l 594 860 q 603 851 603 860 q 594 842 603 842 l 225 842 l 169 454 q 187 463 172 456 q 206 473 201 471 q 226 482 211 475 q 247 492 240 489 q 269 500 254 494 q 296 508 285 506 q 323 514 307 510 q 353 519 339 518 q 386 522 368 521 q 422 524 404 524 q 600 447 533 524 q 665 257 665 374 q 646 158 665 207 q 591 67 626 108 q 498 -1 556 25 q 372 -26 440 -26 q 100 103 218 -26 q 97 108 97 104 q 107 118 97 118 q 114 115 111 118 q 372 -8 226 -8 q 522 34 457 -8 q 617 135 588 76 q 646 257 646 194 q 586 435 646 367 q 422 504 525 504 q 352 500 385 504 q 290 486 319 496 q 244 470 260 476 q 198 449 228 464 q 161 431 168 433 q 157 429 160 429 q 147 439 147 429 q 147 440 147 439 l 208 851 q 218 860 210 860 z "},"6":{"ha":722,"x_min":97,"x_max":626,"o":"m 529 860 q 538 850 538 860 q 531 842 538 843 q 204 575 321 783 q 142 422 165 507 q 368 497 228 497 q 551 420 478 497 q 625 231 625 343 q 551 51 625 129 q 367 -26 478 -26 q 153 78 225 -26 q 97 268 97 158 q 119 417 97 332 q 188 585 142 503 q 526 860 308 800 q 529 860 528 860 m 368 478 q 133 392 214 478 q 115 268 115 319 q 168 88 115 164 q 367 -8 235 -8 q 539 65 471 -8 q 607 231 607 138 q 539 407 607 336 q 368 478 471 478 z "},"7":{"ha":708,"x_min":97,"x_max":613,"o":"m 107 860 l 603 860 q 611 850 611 860 q 611 847 611 849 l 239 -21 q 231 -26 238 -26 q 221 -17 221 -26 q 222 -14 221 -15 l 589 842 l 107 842 q 97 851 97 842 q 107 860 97 860 z "},"8":{"ha":799,"x_min":97,"x_max":703,"o":"m 208 808 q 400 860 286 860 q 590 808 514 860 q 679 643 679 750 q 590 486 679 538 q 500 456 551 465 q 600 418 558 443 q 703 225 703 356 q 600 26 703 93 q 400 -26 519 -26 q 200 26 281 -26 q 97 225 97 93 q 200 418 97 356 q 300 456 242 443 q 210 486 247 465 q 119 643 119 538 q 208 808 119 750 m 581 793 q 400 842 508 842 q 219 793 292 842 q 138 643 138 740 q 218 503 138 549 q 397 465 285 465 q 399 465 397 465 q 400 465 400 465 q 401 465 400 465 q 403 465 403 465 q 581 503 514 465 q 661 643 661 549 q 581 793 661 740 m 392 447 q 210 403 279 444 q 115 225 115 346 q 210 42 115 103 q 400 -8 286 -8 q 590 42 514 -8 q 685 225 685 103 q 590 403 685 346 q 408 447 521 444 q 404 447 407 447 q 400 446 401 446 q 396 447 399 446 q 392 447 393 447 z "},"9":{"ha":722,"x_min":97,"x_max":626,"o":"m 356 860 q 569 756 497 860 q 625 565 625 675 q 603 416 625 501 q 535 249 581 331 q 196 -26 414 33 q 193 -26 194 -26 q 185 -17 185 -26 q 192 -8 185 -10 q 518 258 401 50 q 581 411 557 326 q 354 336 494 336 q 171 413 244 336 q 97 603 97 490 q 171 782 97 704 q 356 860 244 860 m 356 842 q 183 769 251 842 q 115 603 115 696 q 183 426 115 497 q 354 356 251 356 q 589 442 508 356 q 607 565 607 514 q 554 746 607 669 q 356 842 488 842 z "}," ":{"ha":972,"x_min":0,"x_max":0,"o":""},"!":{"ha":65,"x_min":0,"x_max":67,"o":"m 22 -17 q 32 -26 22 -26 q 42 -17 42 -26 l 42 864 q 32 874 42 874 q 22 864 22 874 l 22 -17 m 56 -136 q 61 -141 56 -136 q 67 -160 67 -146 q 56 -183 67 -174 q 32 -192 46 -192 q 9 -183 18 -192 q 0 -160 0 -174 q 9 -136 0 -146 q 32 -126 18 -126 q 56 -136 46 -126 z "},"\"":{"ha":381,"x_min":0,"x_max":382,"o":"m 196 919 q 204 910 204 919 q 203 904 204 907 l 17 594 q 10 590 14 590 q 0 600 0 590 q 1 604 0 603 l 188 914 q 196 919 190 919 m 372 919 q 381 910 381 919 q 379 904 381 907 l 193 594 q 186 590 190 590 q 176 600 176 590 q 178 604 176 603 l 364 914 q 372 919 367 919 z "},"#":{"ha":1336,"x_min":194,"x_max":1143,"o":"m 514 860 q 524 850 524 860 q 524 849 524 850 l 489 613 l 967 613 l 1000 851 q 1010 860 1001 860 q 1019 850 1019 860 q 1018 849 1019 850 l 985 613 l 1133 613 q 1143 603 1143 613 q 1133 593 1143 593 l 982 593 l 932 240 l 1071 240 l 1072 240 q 1081 231 1081 240 q 1072 221 1081 221 l 1071 221 l 929 221 l 894 -18 q 886 -26 894 -26 q 876 -18 876 -26 q 876 -15 876 -17 l 910 221 l 433 221 l 399 -18 q 390 -26 399 -26 q 381 -17 381 -26 q 381 -15 381 -17 l 414 221 l 204 221 q 194 231 194 221 q 204 240 194 240 l 417 240 l 468 593 l 265 593 q 257 603 257 593 q 265 613 257 613 l 471 613 l 504 851 q 514 860 506 860 m 486 593 l 436 240 l 913 240 l 964 593 l 486 593 z "},"$":{"ha":1169,"x_min":194,"x_max":976,"o":"m 596 975 q 606 983 596 983 q 615 975 615 983 l 615 860 q 814 827 726 858 q 954 744 901 796 q 957 738 957 742 q 947 729 957 729 q 942 732 944 729 q 808 810 892 781 q 615 842 724 840 l 615 421 q 854 358 785 389 q 942 301 911 335 q 976 214 976 264 q 856 38 976 106 q 615 -26 754 -21 l 615 -140 l 615 -142 q 606 -150 615 -150 q 596 -142 596 -150 l 596 -140 l 596 -26 q 594 -26 596 -26 q 199 92 357 -26 q 194 99 194 94 q 204 108 194 108 q 210 107 207 108 q 594 -8 364 -8 l 596 -8 l 596 406 q 594 406 596 406 q 593 406 593 406 q 336 472 407 442 q 249 531 278 497 q 214 619 214 568 q 241 706 214 664 q 317 783 268 749 q 596 860 426 857 l 596 975 m 596 842 q 328 768 432 839 q 257 697 282 736 q 232 619 232 658 q 263 543 232 576 q 343 489 289 513 q 596 425 413 460 l 596 842 m 615 401 l 615 -7 q 846 53 749 -3 q 957 214 957 117 q 928 289 957 257 q 847 342 901 319 q 615 401 779 371 z "},"%":{"ha":943,"x_min":194,"x_max":750,"o":"m 686 922 q 696 913 696 922 q 694 908 696 911 l 261 -83 q 251 -89 258 -89 q 243 -79 243 -89 q 243 -75 243 -78 l 678 917 q 686 922 679 922 m 314 922 q 403 886 367 922 q 439 799 439 850 q 403 713 439 749 q 314 676 367 676 q 228 713 263 676 q 194 799 194 749 q 228 886 194 850 q 314 922 263 922 m 314 903 q 241 873 269 903 q 213 799 213 843 q 241 726 213 756 q 314 696 269 696 q 390 726 358 696 q 421 799 421 756 q 390 873 421 843 q 314 903 358 903 m 624 157 q 713 121 676 157 q 749 34 749 85 q 713 -53 749 -17 q 624 -89 676 -89 q 538 -53 572 -89 q 504 34 504 -17 q 538 121 504 85 q 624 157 572 157 m 624 138 q 551 108 579 138 q 522 34 522 78 q 551 -40 522 -10 q 624 -69 579 -69 q 699 -40 668 -69 q 731 34 731 -10 q 699 108 731 78 q 624 138 668 138 z "},"&":{"ha":1101,"x_min":194,"x_max":908,"o":"m 279 860 l 836 860 q 846 851 846 860 q 836 842 846 842 l 297 842 l 811 121 q 821 135 817 128 q 889 417 889 242 q 898 426 889 426 q 907 417 907 426 q 836 125 907 238 q 822 106 831 117 l 906 -11 q 907 -17 907 -14 q 899 -26 907 -26 q 890 -22 893 -26 l 810 90 q 526 -26 713 -26 q 289 72 383 -26 q 194 314 194 171 q 256 515 194 426 q 419 638 318 604 l 271 844 q 269 850 269 847 q 279 860 269 860 m 431 621 q 272 507 332 592 q 213 314 213 422 q 301 85 213 178 q 526 -8 390 -8 q 799 106 707 -8 l 431 621 z "},"'":{"ha":204,"x_min":0,"x_max":206,"o":"m 196 919 q 204 910 204 919 q 203 904 204 907 l 17 594 q 10 590 14 590 q 0 600 0 590 q 1 604 0 603 l 188 914 q 196 919 190 919 z "},"(":{"ha":204,"x_min":0,"x_max":206,"o":"m 196 983 q 190 982 193 983 q 175 970 185 978 q 140 932 165 963 q 94 863 115 901 q 0 417 0 690 q 94 -29 0 143 q 139 -98 115 -68 q 176 -137 163 -128 l 190 -149 q 196 -150 193 -150 q 204 -142 204 -150 q 200 -133 204 -136 q 110 -21 156 -104 q 18 416 18 147 q 110 854 18 685 q 153 919 131 890 q 188 957 175 947 l 200 967 q 204 975 204 969 q 196 983 204 983 z "},")":{"ha":204,"x_min":0,"x_max":206,"o":"m 10 983 q 14 982 13 983 q 29 970 19 978 q 64 932 39 963 q 111 863 89 901 q 204 417 204 690 q 111 -29 204 143 q 65 -98 89 -68 q 28 -137 42 -128 l 14 -149 q 10 -150 13 -150 q 0 -142 0 -150 q 4 -133 0 -136 q 94 -21 49 -104 q 186 416 186 147 q 94 854 186 685 q 51 919 74 890 q 17 957 29 947 l 4 967 q 0 975 0 969 q 10 983 0 983 z "},"*":{"ha":349,"x_min":0,"x_max":350,"o":"m 165 1083 q 174 1092 165 1092 q 183 1083 183 1093 l 183 908 l 335 1022 q 340 1024 338 1024 q 349 1014 349 1024 q 346 1007 349 1010 l 190 890 l 346 774 q 349 767 349 771 q 340 757 349 757 q 335 758 336 757 l 183 872 l 183 697 q 174 688 183 688 q 165 697 165 688 l 165 872 l 15 758 q 10 757 13 757 q 0 767 0 757 q 4 774 0 771 l 160 890 l 4 1007 q 0 1014 0 1010 q 8 1024 0 1024 l 10 1024 q 15 1022 13 1024 l 165 908 l 165 1083 z "},"+":{"ha":576,"x_min":0,"x_max":578,"o":"m 297 426 l 567 426 q 568 426 567 426 q 576 417 576 426 q 568 407 576 407 l 567 407 l 297 407 l 297 138 q 288 128 297 128 q 279 138 279 128 l 279 407 l 10 407 q 0 417 0 407 q 10 426 0 426 l 279 426 l 279 696 q 288 706 279 706 q 297 696 297 706 l 297 426 z "},",":{"ha":204,"x_min":0,"x_max":206,"o":"m 196 108 q 204 100 204 108 q 203 94 204 97 l 17 -215 q 10 -219 14 -219 q 0 -211 0 -219 q 1 -206 0 -208 l 188 104 q 196 108 190 108 z "},"-":{"ha":576,"x_min":0,"x_max":578,"o":"m 10 426 l 567 426 q 568 426 567 426 q 576 417 576 426 q 568 407 576 407 l 567 407 l 10 407 q 0 417 0 407 q 10 426 0 426 z "},".":{"ha":65,"x_min":0,"x_max":67,"o":"m 56 31 q 61 26 56 31 q 67 8 67 21 q 56 -15 67 -6 q 32 -25 46 -25 q 9 -15 18 -25 q 0 8 0 -6 q 9 31 0 21 q 32 40 18 40 q 56 31 46 40 z "},"/":{"ha":451,"x_min":0,"x_max":453,"o":"m 443 922 q 453 913 453 922 q 451 908 453 911 l 18 -83 q 10 -89 15 -89 q 0 -79 0 -89 q 1 -75 0 -78 l 435 917 q 443 922 438 922 z "},":":{"ha":65,"x_min":0,"x_max":67,"o":"m 56 556 q 61 551 56 556 q 67 532 67 546 q 56 509 67 518 q 32 500 46 500 q 9 509 18 500 q 0 532 0 518 q 9 556 0 546 q 32 565 18 565 q 56 556 46 565 m 56 322 q 61 317 56 322 q 67 299 67 313 q 56 275 67 285 q 32 265 46 265 q 9 275 18 265 q 0 299 0 285 q 9 322 0 313 q 32 331 18 331 q 56 322 46 331 z "},";":{"ha":206,"x_min":0,"x_max":207,"o":"m 196 329 q 204 319 204 329 q 203 314 204 317 l 17 4 q 10 0 14 0 q 0 10 0 0 q 1 14 0 13 l 188 324 q 196 329 190 329 m 197 556 q 202 551 197 556 q 207 532 207 546 q 197 509 207 518 q 172 500 186 500 q 149 509 158 500 q 140 532 140 518 q 149 556 140 546 q 172 565 158 565 q 197 556 186 565 z "},"<":{"ha":328,"x_min":0,"x_max":329,"o":"m 319 736 q 313 733 315 736 l 3 424 q 0 417 0 421 q 3 410 0 413 l 313 100 q 319 97 315 97 q 329 107 329 97 q 325 114 329 111 l 22 417 l 325 719 q 329 726 329 722 q 319 736 329 736 z "},"=":{"ha":576,"x_min":0,"x_max":578,"o":"m 10 539 l 567 539 q 568 539 567 539 q 576 530 576 539 q 568 521 576 521 l 567 521 l 10 521 q 0 530 0 521 q 10 539 0 539 m 10 311 l 567 311 l 568 311 q 576 302 576 311 q 568 293 576 293 l 567 293 l 10 293 q 0 302 0 293 q 10 311 0 311 z "},">":{"ha":328,"x_min":0,"x_max":329,"o":"m 10 736 q 17 733 14 736 l 326 424 q 329 417 329 421 q 326 410 329 413 l 17 100 q 10 97 14 97 q 0 107 0 97 q 3 114 0 111 l 306 417 l 3 719 q 0 726 0 722 q 10 736 0 736 z "},"?":{"ha":494,"x_min":0,"x_max":496,"o":"m 135 -136 q 140 -141 135 -136 q 144 -160 144 -146 q 135 -183 144 -174 q 111 -192 125 -192 q 88 -183 97 -192 q 78 -160 78 -174 q 88 -136 78 -146 q 111 -126 97 -126 q 135 -136 125 -126 m 238 922 q 457 818 393 922 q 496 664 496 756 q 485 583 496 621 q 448 506 474 544 q 403 444 422 468 q 343 378 383 421 q 331 364 335 368 q 265 289 290 321 q 208 208 239 257 q 156 103 176 160 q 124 -18 135 47 q 114 -26 122 -26 q 104 -17 104 -26 q 106 -15 104 -17 q 138 110 117 51 q 192 218 160 168 q 251 301 225 268 q 317 376 276 333 q 329 390 321 381 q 388 456 368 433 q 431 515 407 479 q 466 588 456 551 q 476 664 476 624 q 442 808 476 750 q 238 903 383 903 l 238 903 q 15 815 115 904 q 10 813 13 813 q 0 822 0 813 q 3 829 0 826 q 238 922 107 922 z "},"@":{"ha":1485,"x_min":194,"x_max":1292,"o":"m 729 965 q 1013 892 883 965 q 1217 692 1142 818 q 1292 417 1292 565 q 1229 169 1292 276 q 1071 57 1164 57 q 1011 81 1039 57 q 967 142 988 103 l 894 311 l 592 311 l 519 142 q 510 136 517 136 q 501 146 501 136 q 501 149 501 147 l 735 692 q 742 697 736 697 q 751 692 749 697 l 983 150 q 1024 94 1001 114 q 1071 75 1046 75 q 1214 179 1154 75 q 1272 417 1272 281 q 1201 683 1272 561 q 1004 876 1129 804 q 729 947 879 947 q 462 876 581 947 q 278 683 343 804 q 213 417 213 563 q 278 150 213 271 q 462 -42 343 29 q 729 -114 581 -114 q 942 -72 842 -114 q 946 -71 944 -71 q 956 -81 956 -71 q 950 -89 956 -86 q 729 -132 844 -132 q 453 -58 576 -132 q 263 142 331 17 q 194 417 194 267 q 263 692 194 567 q 453 891 331 817 q 729 965 576 965 m 743 664 l 599 329 l 886 329 l 743 664 z "},"A":{"ha":1150,"x_min":194,"x_max":957,"o":"m 575 860 q 585 854 582 860 l 956 -14 q 957 -17 957 -15 q 947 -26 957 -26 q 939 -21 942 -26 l 575 826 l 213 -21 q 204 -26 210 -26 q 194 -17 194 -26 q 196 -14 194 -15 l 567 854 q 575 860 569 860 z "},"B":{"ha":1025,"x_min":194,"x_max":832,"o":"m 203 860 l 493 860 q 693 825 619 860 q 800 656 800 776 q 693 479 800 535 q 607 450 657 460 q 718 417 672 440 q 832 217 832 357 q 718 17 832 76 q 513 -26 640 -26 l 203 -26 q 194 -17 194 -26 q 203 -8 194 -8 l 513 -8 q 710 32 636 -8 q 814 217 814 88 q 711 401 814 347 q 513 439 638 439 l 493 439 l 203 439 q 194 448 194 439 q 203 457 194 457 l 493 457 q 685 494 611 457 q 783 656 783 544 q 686 810 783 764 q 493 842 615 842 l 203 842 q 194 851 194 842 q 203 860 194 860 z "},"C":{"ha":1150,"x_min":194,"x_max":957,"o":"m 638 860 q 954 733 828 860 q 957 726 957 731 q 947 717 957 717 q 940 719 943 717 q 638 842 819 842 q 334 720 456 842 q 213 417 213 599 q 334 113 213 235 q 638 -8 456 -8 q 940 114 819 -8 q 947 117 943 117 q 957 107 957 117 q 954 100 957 103 q 638 -26 828 -26 q 322 101 449 -26 q 194 417 194 228 q 322 733 194 606 q 638 860 449 860 z "},"D":{"ha":1026,"x_min":194,"x_max":833,"o":"m 204 860 l 328 860 q 722 733 594 860 q 833 417 833 622 q 722 100 833 211 q 328 -26 594 -26 l 204 -26 q 194 -17 194 -26 q 204 -8 194 -8 l 328 -8 q 708 114 588 -8 q 814 417 814 219 q 708 719 814 614 q 328 842 588 842 l 204 842 q 194 851 194 842 q 204 860 194 860 z "},"E":{"ha":1026,"x_min":194,"x_max":833,"o":"m 204 860 l 824 860 q 833 851 833 860 q 824 842 833 842 l 204 842 q 194 851 194 842 q 204 860 194 860 m 204 426 l 761 426 q 771 417 771 426 q 761 407 771 407 l 204 407 q 194 417 194 407 q 204 426 194 426 m 204 -8 l 824 -8 q 833 -17 833 -8 q 824 -26 833 -26 l 204 -26 q 194 -17 194 -26 q 204 -8 194 -8 z "},"F":{"ha":1026,"x_min":194,"x_max":833,"o":"m 204 860 l 824 860 q 833 851 833 860 q 824 842 833 842 l 204 842 q 194 851 194 842 q 204 860 194 860 m 204 426 l 761 426 q 771 417 771 426 q 761 407 771 407 l 213 407 l 213 -17 q 203 -26 213 -26 q 194 -17 194 -26 l 194 417 q 204 426 194 426 z "},"G":{"ha":1150,"x_min":194,"x_max":957,"o":"m 638 860 q 954 733 828 860 q 957 726 957 731 q 947 717 957 717 q 940 719 943 717 q 638 842 819 842 q 334 720 456 842 q 213 417 213 599 q 334 113 213 235 q 638 -8 456 -8 q 938 111 817 -8 l 938 407 l 514 407 q 504 417 504 407 q 514 426 504 426 l 947 426 q 957 417 957 426 l 957 107 q 954 100 957 103 q 638 -26 828 -26 q 322 101 449 -26 q 194 417 194 228 q 322 733 194 606 q 638 860 449 860 z "},"H":{"ha":1026,"x_min":194,"x_max":833,"o":"m 204 860 q 213 850 213 860 l 213 426 l 814 426 l 814 850 q 824 860 814 860 q 833 850 833 860 l 833 -17 q 824 -26 833 -26 q 814 -17 814 -26 l 814 407 l 213 407 l 213 -17 q 203 -26 213 -26 q 194 -17 194 -26 l 194 850 q 204 860 194 860 z "},"I":{"ha":407,"x_min":194,"x_max":214,"o":"m 194 850 q 204 860 194 860 q 213 850 213 860 l 213 -17 q 203 -26 213 -26 q 194 -17 194 -26 l 194 850 z "},"J":{"ha":994,"x_min":194,"x_max":801,"o":"m 783 850 q 792 860 783 860 q 800 850 800 860 l 800 293 q 689 38 800 122 q 482 -26 604 -26 q 275 38 360 -26 q 196 136 224 76 q 194 140 194 138 q 203 149 194 149 q 211 143 208 149 q 286 51 238 88 q 482 -8 367 -8 q 678 51 597 -8 q 783 293 783 131 l 783 850 z "},"K":{"ha":1049,"x_min":194,"x_max":856,"o":"m 194 850 q 203 860 194 860 q 213 850 213 860 l 213 13 l 815 856 q 824 860 818 860 q 833 850 833 860 q 831 844 833 847 l 536 432 l 853 -11 q 854 -17 854 -14 q 846 -26 854 -26 q 838 -22 840 -26 l 525 417 l 211 -22 q 204 -26 208 -26 q 194 -17 194 -26 l 194 850 z "},"L":{"ha":1026,"x_min":194,"x_max":833,"o":"m 204 860 q 213 850 213 860 l 213 -8 l 824 -8 q 833 -17 833 -8 q 824 -26 833 -26 l 204 -26 q 194 -17 194 -26 l 194 850 q 204 860 194 860 z "},"M":{"ha":1614,"x_min":194,"x_max":1421,"o":"m 575 860 q 585 854 582 860 l 807 335 l 1031 854 q 1038 860 1032 860 l 1039 860 q 1047 854 1044 860 l 1419 -14 q 1419 -17 1419 -15 q 1410 -26 1419 -26 q 1401 -21 1404 -26 l 1039 826 l 817 311 l 956 -14 q 957 -17 957 -15 q 947 -26 957 -26 q 939 -21 942 -26 l 807 288 l 675 -21 q 667 -26 672 -26 q 657 -17 657 -26 q 658 -14 657 -15 l 797 311 l 575 826 l 213 -21 q 204 -26 210 -26 q 194 -17 194 -26 q 196 -14 194 -15 l 567 854 q 575 860 569 860 z "},"N":{"ha":1026,"x_min":194,"x_max":833,"o":"m 814 850 q 824 860 814 860 q 833 850 833 860 l 833 -17 q 824 -26 833 -26 q 815 -22 818 -26 l 213 821 l 213 -17 q 203 -26 213 -26 q 194 -17 194 -26 l 194 850 q 204 860 194 860 q 211 856 208 860 l 814 13 l 814 850 z "},"O":{"ha":1274,"x_min":194,"x_max":1081,"o":"m 626 860 q 948 730 815 860 q 1081 417 1081 600 q 948 103 1081 233 q 626 -26 815 -26 q 403 33 503 -26 q 249 194 304 93 q 194 417 194 296 q 249 639 194 538 q 403 800 304 740 q 626 860 503 860 m 626 842 q 330 719 447 842 q 213 417 213 596 q 330 115 213 238 q 626 -8 447 -8 q 935 116 808 -8 q 1063 417 1063 240 q 935 717 1063 593 q 626 842 808 842 z "},"P":{"ha":1026,"x_min":194,"x_max":833,"o":"m 204 860 l 514 860 q 719 814 636 860 q 833 619 833 751 q 719 424 833 486 q 514 376 636 376 l 213 376 l 213 -17 q 203 -26 213 -26 q 194 -17 194 -26 l 194 386 q 204 394 194 394 l 514 394 q 711 440 631 394 q 814 619 814 497 q 711 797 814 740 q 514 842 631 842 l 204 842 q 194 851 194 842 q 204 860 194 860 z "},"Q":{"ha":1275,"x_min":194,"x_max":1082,"o":"m 626 860 q 948 730 815 860 q 1081 417 1081 600 q 1034 219 1081 311 q 906 67 988 128 l 1067 -72 q 1069 -79 1069 -75 q 1061 -89 1069 -89 q 1054 -86 1057 -89 l 890 56 q 626 -26 772 -26 q 403 33 503 -26 q 249 194 304 93 q 194 417 194 296 q 249 639 194 538 q 403 800 304 740 q 626 860 503 860 m 626 842 q 330 719 447 842 q 213 417 213 596 q 330 115 213 238 q 626 -8 447 -8 q 875 68 764 -8 l 621 286 q 618 293 618 289 q 626 303 618 303 q 633 300 631 303 l 890 79 q 1017 226 971 138 q 1063 417 1063 315 q 935 717 1063 593 q 626 842 808 842 z "},"R":{"ha":1089,"x_min":194,"x_max":896,"o":"m 204 860 l 514 860 q 719 814 636 860 q 833 619 833 751 q 719 424 833 486 q 583 382 664 393 l 893 -11 q 894 -17 894 -14 q 886 -26 894 -26 q 878 -22 881 -26 l 563 379 q 514 376 538 376 l 213 376 l 213 -17 q 203 -26 213 -26 q 194 -17 194 -26 l 194 386 q 204 394 194 394 l 514 394 q 549 397 524 394 l 196 844 q 194 850 194 847 q 204 860 194 860 m 222 842 l 571 399 q 710 440 654 408 q 814 619 814 497 q 711 797 814 740 q 514 842 631 842 l 222 842 z "},"S":{"ha":1169,"x_min":194,"x_max":976,"o":"m 606 860 q 810 828 721 860 q 954 744 900 797 q 957 738 957 742 q 949 729 957 729 q 942 732 944 729 q 803 811 890 781 q 606 842 717 842 q 328 768 436 842 q 258 697 282 736 q 233 619 233 658 q 263 543 233 576 q 343 489 289 513 q 597 425 413 460 q 854 358 785 389 q 942 301 913 335 q 976 214 976 264 q 856 36 976 106 q 596 -26 744 -26 q 199 92 358 -26 q 194 99 194 94 q 204 108 194 108 q 210 107 207 108 q 596 -8 364 -8 q 846 53 740 -8 q 958 214 958 117 q 928 289 958 257 q 847 342 901 319 q 593 406 779 371 q 336 472 407 442 q 249 531 278 497 q 214 619 214 568 q 241 706 214 664 q 317 783 268 749 q 606 860 431 860 z "},"T":{"ha":1151,"x_min":192,"x_max":960,"o":"m 204 860 l 947 860 q 956 855 954 860 q 956 846 958 850 q 947 842 954 842 l 585 842 l 585 -17 q 581 -26 585 -24 q 572 -26 576 -28 q 567 -17 567 -24 l 567 842 l 204 842 q 196 846 199 842 q 196 855 193 850 q 204 860 199 860 z "},"U":{"ha":1081,"x_min":194,"x_max":888,"o":"m 204 860 q 213 850 213 860 l 213 319 q 308 88 213 183 q 540 -8 404 -8 q 772 88 676 -8 q 868 319 868 183 l 868 850 q 878 860 868 860 q 888 850 888 860 l 888 319 q 786 75 888 176 q 541 -26 685 -26 q 296 75 397 -26 q 194 319 194 176 l 194 850 q 204 860 194 860 z "},"V":{"ha":1150,"x_min":194,"x_max":957,"o":"m 575 -26 q 567 -21 569 -26 l 196 847 q 194 850 194 849 q 204 860 194 860 q 213 854 210 860 l 575 7 l 939 854 q 947 860 942 860 q 957 850 957 860 q 956 847 957 849 l 585 -21 q 575 -26 582 -26 z "},"W":{"ha":1585,"x_min":194,"x_max":1392,"o":"m 947 860 q 957 850 957 860 q 956 847 957 849 l 803 489 l 1010 7 l 1372 854 q 1381 860 1375 860 q 1390 850 1390 860 q 1390 847 1390 849 l 1018 -21 q 1009 -26 1015 -26 q 1001 -21 1003 -26 l 793 465 l 585 -21 q 576 -26 582 -26 q 567 -21 569 -26 l 196 847 q 194 850 194 849 q 204 860 194 860 q 213 854 210 860 l 575 7 l 782 489 l 629 847 q 628 850 628 849 q 638 860 628 860 q 646 854 643 860 l 793 513 l 939 854 q 947 860 942 860 z "},"X":{"ha":1089,"x_min":194,"x_max":896,"o":"m 204 860 q 211 856 208 860 l 544 432 l 878 856 q 885 860 881 860 q 886 860 885 860 q 894 850 894 860 q 893 844 894 847 l 557 417 l 893 -11 q 894 -17 894 -14 q 886 -26 894 -26 q 878 -22 881 -26 l 544 401 l 211 -22 q 204 -26 208 -26 q 194 -17 194 -26 q 196 -11 194 -14 l 533 417 l 196 844 q 194 850 194 847 q 204 860 194 860 z "},"Y":{"ha":1151,"x_min":194,"x_max":958,"o":"m 947 860 q 957 850 957 860 q 956 844 957 847 l 585 372 l 585 -17 l 585 -18 q 576 -26 585 -26 q 567 -18 567 -26 l 567 -17 l 567 372 l 197 844 q 194 850 194 847 q 204 860 194 860 q 211 856 208 860 l 576 392 l 940 856 q 947 860 943 860 z "},"Z":{"ha":1026,"x_min":194,"x_max":833,"o":"m 824 860 q 833 850 833 860 q 831 844 833 847 l 222 -8 l 824 -8 q 833 -17 833 -8 q 824 -26 833 -26 l 204 -26 q 194 -17 194 -26 q 196 -11 194 -14 l 806 842 l 204 840 q 194 850 194 840 q 204 860 194 860 l 824 860 z "},"[":{"ha":204,"x_min":0,"x_max":206,"o":"m 196 983 l 10 983 q 0 975 0 983 l 0 -142 q 10 -150 0 -150 l 196 -150 q 204 -141 204 -150 q 196 -132 204 -132 l 18 -132 l 18 965 l 196 965 q 204 974 204 965 q 196 983 204 983 z "},"\\":{"ha":451,"x_min":0,"x_max":453,"o":"m 443 -89 q 453 -79 453 -89 q 451 -75 453 -78 l 18 917 q 10 922 15 922 q 0 913 0 922 q 1 908 0 910 l 435 -83 q 443 -89 438 -89 z "},"]":{"ha":204,"x_min":0,"x_max":206,"o":"m 10 983 l 196 983 q 204 975 204 983 l 204 -142 q 196 -150 204 -150 l 10 -150 q 0 -141 0 -150 q 10 -132 0 -132 l 186 -132 l 186 965 l 10 965 q 0 974 0 965 q 10 983 0 983 z "},"^":{"ha":514,"x_min":0,"x_max":515,"o":"m 257 1282 q 261 1281 260 1282 l 510 1157 q 515 1149 515 1154 q 506 1139 515 1139 q 501 1140 503 1139 l 257 1263 l 14 1140 q 10 1139 11 1139 q 0 1149 0 1139 q 6 1157 0 1154 l 253 1281 q 257 1282 256 1282 z "},"_":{"ha":549,"x_min":-14,"x_max":564,"o":"m -4 -8 l 553 -8 l 554 -8 q 563 -18 563 -8 q 554 -28 563 -28 l 553 -28 l -4 -28 q -14 -18 -14 -28 q -4 -8 -14 -8 z "},"`":{"ha":267,"x_min":0,"x_max":268,"o":"m 10 1282 q 0 1272 0 1282 q 6 1264 0 1267 l 253 1140 q 257 1139 256 1139 q 267 1149 267 1139 q 261 1157 267 1154 l 14 1281 q 10 1282 11 1282 z "},"a":{"ha":1150,"x_min":194,"x_max":957,"o":"m 575 860 q 585 854 582 860 l 956 -14 q 957 -17 957 -15 q 947 -26 957 -26 q 939 -21 942 -26 l 575 826 l 213 -21 q 204 -26 210 -26 q 194 -17 194 -26 q 196 -14 194 -15 l 567 854 q 575 860 569 860 z "},"b":{"ha":1025,"x_min":194,"x_max":832,"o":"m 203 860 l 493 860 q 693 825 619 860 q 800 656 800 776 q 693 479 800 535 q 607 450 657 460 q 718 417 672 440 q 832 217 832 357 q 718 17 832 76 q 513 -26 640 -26 l 203 -26 q 194 -17 194 -26 q 203 -8 194 -8 l 513 -8 q 710 32 636 -8 q 814 217 814 88 q 711 401 814 347 q 513 439 638 439 l 493 439 l 203 439 q 194 448 194 439 q 203 457 194 457 l 493 457 q 685 494 611 457 q 783 656 783 544 q 686 810 783 764 q 493 842 615 842 l 203 842 q 194 851 194 842 q 203 860 194 860 z "},"c":{"ha":1150,"x_min":194,"x_max":957,"o":"m 638 860 q 954 733 828 860 q 957 726 957 731 q 947 717 957 717 q 940 719 943 717 q 638 842 819 842 q 334 720 456 842 q 213 417 213 599 q 334 113 213 235 q 638 -8 456 -8 q 940 114 819 -8 q 947 117 943 117 q 957 107 957 117 q 954 100 957 103 q 638 -26 828 -26 q 322 101 449 -26 q 194 417 194 228 q 322 733 194 606 q 638 860 449 860 z "},"d":{"ha":1026,"x_min":194,"x_max":833,"o":"m 204 860 l 328 860 q 722 733 594 860 q 833 417 833 622 q 722 100 833 211 q 328 -26 594 -26 l 204 -26 q 194 -17 194 -26 q 204 -8 194 -8 l 328 -8 q 708 114 588 -8 q 814 417 814 219 q 708 719 814 614 q 328 842 588 842 l 204 842 q 194 851 194 842 q 204 860 194 860 z "},"e":{"ha":1026,"x_min":194,"x_max":833,"o":"m 204 860 l 824 860 q 833 851 833 860 q 824 842 833 842 l 204 842 q 194 851 194 842 q 204 860 194 860 m 204 426 l 761 426 q 771 417 771 426 q 761 407 771 407 l 204 407 q 194 417 194 407 q 204 426 194 426 m 204 -8 l 824 -8 q 833 -17 833 -8 q 824 -26 833 -26 l 204 -26 q 194 -17 194 -26 q 204 -8 194 -8 z "},"f":{"ha":1026,"x_min":194,"x_max":833,"o":"m 204 860 l 824 860 q 833 851 833 860 q 824 842 833 842 l 204 842 q 194 851 194 842 q 204 860 194 860 m 204 426 l 761 426 q 771 417 771 426 q 761 407 771 407 l 213 407 l 213 -17 q 203 -26 213 -26 q 194 -17 194 -26 l 194 417 q 204 426 194 426 z "},"g":{"ha":1150,"x_min":194,"x_max":957,"o":"m 638 860 q 954 733 828 860 q 957 726 957 731 q 947 717 957 717 q 940 719 943 717 q 638 842 819 842 q 334 720 456 842 q 213 417 213 599 q 334 113 213 235 q 638 -8 456 -8 q 938 111 817 -8 l 938 407 l 514 407 q 504 417 504 407 q 514 426 504 426 l 947 426 q 957 417 957 426 l 957 107 q 954 100 957 103 q 638 -26 828 -26 q 322 101 449 -26 q 194 417 194 228 q 322 733 194 606 q 638 860 449 860 z "},"h":{"ha":1026,"x_min":194,"x_max":833,"o":"m 204 860 q 213 850 213 860 l 213 426 l 814 426 l 814 850 q 824 860 814 860 q 833 850 833 860 l 833 -17 q 824 -26 833 -26 q 814 -17 814 -26 l 814 407 l 213 407 l 213 -17 q 203 -26 213 -26 q 194 -17 194 -26 l 194 850 q 204 860 194 860 z "},"i":{"ha":407,"x_min":194,"x_max":214,"o":"m 194 850 q 204 860 194 860 q 213 850 213 860 l 213 -17 q 203 -26 213 -26 q 194 -17 194 -26 l 194 850 z "},"j":{"ha":994,"x_min":194,"x_max":801,"o":"m 783 850 q 792 860 783 860 q 800 850 800 860 l 800 293 q 689 38 800 122 q 482 -26 604 -26 q 275 38 360 -26 q 196 136 224 76 q 194 140 194 138 q 203 149 194 149 q 211 143 208 149 q 286 51 238 88 q 482 -8 367 -8 q 678 51 597 -8 q 783 293 783 131 l 783 850 z "},"k":{"ha":1049,"x_min":194,"x_max":856,"o":"m 194 850 q 203 860 194 860 q 213 850 213 860 l 213 13 l 815 856 q 824 860 818 860 q 833 850 833 860 q 831 844 833 847 l 536 432 l 853 -11 q 854 -17 854 -14 q 846 -26 854 -26 q 838 -22 840 -26 l 525 417 l 211 -22 q 204 -26 208 -26 q 194 -17 194 -26 l 194 850 z "},"l":{"ha":1026,"x_min":194,"x_max":833,"o":"m 204 860 q 213 850 213 860 l 213 -8 l 824 -8 q 833 -17 833 -8 q 824 -26 833 -26 l 204 -26 q 194 -17 194 -26 l 194 850 q 204 860 194 860 z "},"m":{"ha":1614,"x_min":194,"x_max":1421,"o":"m 575 860 q 585 854 582 860 l 807 335 l 1031 854 q 1038 860 1032 860 l 1039 860 q 1047 854 1044 860 l 1419 -14 q 1419 -17 1419 -15 q 1410 -26 1419 -26 q 1401 -21 1404 -26 l 1039 826 l 817 311 l 956 -14 q 957 -17 957 -15 q 947 -26 957 -26 q 939 -21 942 -26 l 807 288 l 675 -21 q 667 -26 672 -26 q 657 -17 657 -26 q 658 -14 657 -15 l 797 311 l 575 826 l 213 -21 q 204 -26 210 -26 q 194 -17 194 -26 q 196 -14 194 -15 l 567 854 q 575 860 569 860 z "},"n":{"ha":1026,"x_min":194,"x_max":833,"o":"m 814 850 q 824 860 814 860 q 833 850 833 860 l 833 -17 q 824 -26 833 -26 q 815 -22 818 -26 l 213 821 l 213 -17 q 203 -26 213 -26 q 194 -17 194 -26 l 194 850 q 204 860 194 860 q 211 856 208 860 l 814 13 l 814 850 z "},"o":{"ha":1274,"x_min":194,"x_max":1081,"o":"m 626 860 q 948 730 815 860 q 1081 417 1081 600 q 948 103 1081 233 q 626 -26 815 -26 q 403 33 503 -26 q 249 194 304 93 q 194 417 194 296 q 249 639 194 538 q 403 800 304 740 q 626 860 503 860 m 626 842 q 330 719 447 842 q 213 417 213 596 q 330 115 213 238 q 626 -8 447 -8 q 935 116 808 -8 q 1063 417 1063 240 q 935 717 1063 593 q 626 842 808 842 z "},"p":{"ha":1026,"x_min":194,"x_max":833,"o":"m 204 860 l 514 860 q 719 814 636 860 q 833 619 833 751 q 719 424 833 486 q 514 376 636 376 l 213 376 l 213 -17 q 203 -26 213 -26 q 194 -17 194 -26 l 194 386 q 204 394 194 394 l 514 394 q 711 440 631 394 q 814 619 814 497 q 711 797 814 740 q 514 842 631 842 l 204 842 q 194 851 194 842 q 204 860 194 860 z "},"q":{"ha":1275,"x_min":194,"x_max":1082,"o":"m 626 860 q 948 730 815 860 q 1081 417 1081 600 q 1034 219 1081 311 q 906 67 988 128 l 1067 -72 q 1069 -79 1069 -75 q 1061 -89 1069 -89 q 1054 -86 1057 -89 l 890 56 q 626 -26 772 -26 q 403 33 503 -26 q 249 194 304 93 q 194 417 194 296 q 249 639 194 538 q 403 800 304 740 q 626 860 503 860 m 626 842 q 330 719 447 842 q 213 417 213 596 q 330 115 213 238 q 626 -8 447 -8 q 875 68 764 -8 l 621 286 q 618 293 618 289 q 626 303 618 303 q 633 300 631 303 l 890 79 q 1017 226 971 138 q 1063 417 1063 315 q 935 717 1063 593 q 626 842 808 842 z "},"r":{"ha":1089,"x_min":194,"x_max":896,"o":"m 204 860 l 514 860 q 719 814 636 860 q 833 619 833 751 q 719 424 833 486 q 583 382 664 393 l 893 -11 q 894 -17 894 -14 q 886 -26 894 -26 q 878 -22 881 -26 l 563 379 q 514 376 538 376 l 213 376 l 213 -17 q 203 -26 213 -26 q 194 -17 194 -26 l 194 386 q 204 394 194 394 l 514 394 q 549 397 524 394 l 196 844 q 194 850 194 847 q 204 860 194 860 m 222 842 l 571 399 q 710 440 654 408 q 814 619 814 497 q 711 797 814 740 q 514 842 631 842 l 222 842 z "},"s":{"ha":1169,"x_min":194,"x_max":976,"o":"m 606 860 q 810 828 721 860 q 954 744 900 797 q 957 738 957 742 q 949 729 957 729 q 942 732 944 729 q 803 811 890 781 q 606 842 717 842 q 328 768 436 842 q 258 697 282 736 q 233 619 233 658 q 263 543 233 576 q 343 489 289 513 q 597 425 413 460 q 854 358 785 389 q 942 301 913 335 q 976 214 976 264 q 856 36 976 106 q 596 -26 744 -26 q 199 92 358 -26 q 194 99 194 94 q 204 108 194 108 q 210 107 207 108 q 596 -8 364 -8 q 846 53 740 -8 q 958 214 958 117 q 928 289 958 257 q 847 342 901 319 q 593 406 779 371 q 336 472 407 442 q 249 531 278 497 q 214 619 214 568 q 241 706 214 664 q 317 783 268 749 q 606 860 431 860 z "},"t":{"ha":1151,"x_min":192,"x_max":960,"o":"m 204 860 l 947 860 q 956 855 954 860 q 956 846 958 850 q 947 842 954 842 l 585 842 l 585 -17 q 581 -26 585 -24 q 572 -26 576 -28 q 567 -17 567 -24 l 567 842 l 204 842 q 196 846 199 842 q 196 855 193 850 q 204 860 199 860 z "},"u":{"ha":1081,"x_min":194,"x_max":888,"o":"m 204 860 q 213 850 213 860 l 213 319 q 308 88 213 183 q 540 -8 404 -8 q 772 88 676 -8 q 868 319 868 183 l 868 850 q 878 860 868 860 q 888 850 888 860 l 888 319 q 786 75 888 176 q 541 -26 685 -26 q 296 75 397 -26 q 194 319 194 176 l 194 850 q 204 860 194 860 z "},"v":{"ha":1150,"x_min":194,"x_max":957,"o":"m 575 -26 q 567 -21 569 -26 l 196 847 q 194 850 194 849 q 204 860 194 860 q 213 854 210 860 l 575 7 l 939 854 q 947 860 942 860 q 957 850 957 860 q 956 847 957 849 l 585 -21 q 575 -26 582 -26 z "},"w":{"ha":1585,"x_min":194,"x_max":1392,"o":"m 947 860 q 957 850 957 860 q 956 847 957 849 l 803 489 l 1010 7 l 1372 854 q 1381 860 1375 860 q 1390 850 1390 860 q 1390 847 1390 849 l 1018 -21 q 1009 -26 1015 -26 q 1001 -21 1003 -26 l 793 465 l 585 -21 q 576 -26 582 -26 q 567 -21 569 -26 l 196 847 q 194 850 194 849 q 204 860 194 860 q 213 854 210 860 l 575 7 l 782 489 l 629 847 q 628 850 628 849 q 638 860 628 860 q 646 854 643 860 l 793 513 l 939 854 q 947 860 942 860 z "},"x":{"ha":1089,"x_min":194,"x_max":896,"o":"m 204 860 q 211 856 208 860 l 544 432 l 878 856 q 885 860 881 860 q 886 860 885 860 q 894 850 894 860 q 893 844 894 847 l 557 417 l 893 -11 q 894 -17 894 -14 q 886 -26 894 -26 q 878 -22 881 -26 l 544 401 l 211 -22 q 204 -26 208 -26 q 194 -17 194 -26 q 196 -11 194 -14 l 533 417 l 196 844 q 194 850 194 847 q 204 860 194 860 z "},"y":{"ha":1151,"x_min":194,"x_max":958,"o":"m 947 860 q 957 850 957 860 q 956 844 957 847 l 585 372 l 585 -17 l 585 -18 q 576 -26 585 -26 q 567 -18 567 -26 l 567 -17 l 567 372 l 197 844 q 194 850 194 847 q 204 860 194 860 q 211 856 208 860 l 576 392 l 940 856 q 947 860 943 860 z "},"z":{"ha":1026,"x_min":194,"x_max":833,"o":"m 824 860 q 833 850 833 860 q 831 844 833 847 l 222 -8 l 824 -8 q 833 -17 833 -8 q 824 -26 833 -26 l 204 -26 q 194 -17 194 -26 q 196 -11 194 -14 l 806 842 l 204 840 q 194 850 194 840 q 204 860 194 860 l 824 860 z "},"{":{"ha":328,"x_min":0,"x_max":329,"o":"m 319 983 l 257 983 q 140 940 169 983 q 124 850 124 915 l 124 540 q 88 449 122 478 q 10 426 60 426 q 0 416 0 425 q 10 407 0 407 q 89 393 68 407 q 124 293 124 371 l 124 -17 q 140 -107 124 -82 q 257 -150 169 -150 l 319 -150 q 328 -141 328 -150 q 319 -132 328 -132 l 257 -132 q 156 -97 179 -132 q 142 -17 142 -76 l 142 293 q 100 408 142 381 q 74 419 89 415 q 100 435 89 426 q 142 540 140 468 l 142 540 l 142 850 q 156 931 142 910 q 257 965 179 965 l 319 965 q 328 974 328 965 q 319 983 328 983 z "},"|":{"ha":18,"x_min":0,"x_max":19,"o":"m 0 -136 q 9 -146 0 -146 q 18 -136 18 -146 l 18 967 q 9 976 18 976 q 0 967 0 976 l 0 -136 z "},"}":{"ha":328,"x_min":0,"x_max":329,"o":"m 10 983 l 71 983 q 188 940 160 983 q 204 850 204 915 l 204 540 q 240 449 206 478 q 319 426 269 426 q 328 416 328 425 q 319 407 328 407 q 239 393 260 407 q 204 293 204 371 l 204 -17 q 188 -107 204 -82 q 71 -150 160 -150 l 10 -150 q 0 -141 0 -150 q 10 -132 0 -132 l 71 -132 q 172 -97 149 -132 q 186 -17 186 -76 l 186 293 q 229 408 186 381 q 254 419 239 415 q 229 435 239 426 q 186 540 188 468 l 186 540 l 186 850 q 172 931 186 910 q 71 965 149 965 l 10 965 q 0 974 0 965 q 10 983 0 983 z "},"~":{"ha":803,"x_min":0,"x_max":804,"o":"m 206 501 q 293 488 253 501 q 354 462 333 475 q 408 424 375 449 q 459 387 440 399 q 515 363 478 375 q 599 351 553 351 q 728 399 657 351 q 759 421 744 408 q 781 440 774 433 l 788 446 q 794 449 790 449 q 804 440 804 449 q 801 433 804 436 q 739 383 776 408 q 599 332 663 332 q 510 345 551 332 q 449 372 469 358 q 397 410 429 385 q 345 447 364 435 q 288 470 326 458 q 206 482 250 482 q 76 435 147 482 q 44 413 60 425 q 22 393 29 400 l 15 388 q 10 385 13 385 q 0 393 0 385 q 3 400 0 397 q 65 450 28 425 q 206 501 142 501 z "},"¡":{"ha":65,"x_min":0,"x_max":67,"o":"m 22 699 q 32 708 22 708 q 42 699 42 708 l 42 -183 q 32 -192 42 -192 q 22 -183 22 -192 l 22 699 m 56 818 q 61 823 56 818 q 67 841 67 828 q 56 864 67 854 q 32 874 46 874 q 9 864 18 874 q 0 840 0 854 q 9 817 0 826 q 32 808 18 808 q 56 818 46 808 z "},"¢":{"ha":961,"x_min":194,"x_max":768,"o":"m 504 850 q 513 860 504 860 q 522 850 522 860 l 522 749 q 525 749 524 749 q 526 749 526 749 q 764 654 669 749 q 767 647 767 651 q 758 639 767 639 q 751 642 754 639 q 526 731 661 731 q 525 731 526 731 q 522 731 524 731 l 522 103 q 525 103 524 103 q 526 103 526 103 q 751 193 661 103 q 758 196 754 196 q 767 186 767 196 q 764 179 767 182 q 526 85 669 85 q 525 85 526 85 q 522 85 524 85 l 522 -17 q 513 -26 522 -26 q 504 -17 504 -26 l 504 85 q 283 187 371 93 q 194 417 194 281 q 283 647 194 553 q 504 749 371 740 l 504 850 m 504 729 q 295 634 378 722 q 213 417 213 546 q 295 199 213 288 q 504 104 378 111 l 504 729 z "},"£":{"ha":1151,"x_min":194,"x_max":958,"o":"m 700 860 q 938 765 842 860 q 940 758 940 763 q 931 749 940 749 q 924 751 926 749 q 700 842 835 842 q 476 752 565 842 q 386 528 386 663 q 397 364 386 511 l 824 364 q 833 355 833 364 q 824 346 833 346 l 399 346 q 400 260 401 296 q 286 -8 393 108 l 947 -8 q 957 -17 957 -8 q 947 -26 957 -26 l 265 -26 q 257 -17 257 -26 q 260 -11 257 -14 q 382 261 374 104 q 381 346 383 296 l 204 346 q 194 355 194 346 q 204 364 194 364 l 379 364 q 367 528 367 506 q 463 765 367 669 q 700 860 558 860 z "},"¥":{"ha":1151,"x_min":194,"x_max":958,"o":"m 204 860 q 211 856 208 860 l 576 392 l 940 856 q 947 860 943 860 q 957 850 957 860 q 956 844 957 847 l 585 372 l 585 364 l 761 364 q 763 364 761 364 q 771 355 771 364 q 763 346 771 346 l 761 346 l 585 346 l 585 240 l 761 240 l 763 240 q 771 231 771 240 q 763 221 771 221 l 761 221 l 585 221 l 585 -17 q 576 -26 585 -26 q 567 -17 567 -26 l 567 221 l 390 221 q 381 231 381 221 q 390 240 381 240 l 567 240 l 567 346 l 390 346 q 381 355 381 346 q 390 364 381 364 l 567 364 l 567 372 l 197 844 q 194 850 194 847 q 204 860 194 860 z "},"§":{"ha":574,"x_min":0,"x_max":575,"o":"m 303 861 q 558 778 471 861 q 561 771 561 775 q 551 761 561 761 q 544 764 547 761 q 303 843 464 843 q 101 790 179 843 q 33 685 33 743 q 54 631 33 653 q 111 592 74 608 q 296 544 163 569 q 485 497 433 518 q 549 454 526 479 q 575 389 575 426 q 485 257 575 308 q 549 215 526 239 q 575 150 575 188 q 485 18 575 69 q 294 -28 404 -28 q 4 58 121 -28 q 0 65 0 61 q 10 75 0 75 q 15 74 13 75 q 294 -10 126 -10 q 476 35 399 -10 q 556 150 556 81 q 535 203 556 179 q 476 240 515 224 q 293 286 428 261 q 104 335 157 313 q 40 378 63 354 q 14 444 14 407 q 38 515 14 481 q 104 575 61 549 q 40 618 63 593 q 14 685 14 646 q 90 806 14 753 q 303 861 174 861 m 126 565 q 58 509 82 542 q 33 444 33 476 q 54 390 33 414 q 111 353 74 369 q 296 306 163 331 q 461 265 414 282 q 556 389 556 313 q 535 442 556 419 q 476 479 515 463 q 293 526 428 500 q 126 565 175 549 z "},"¨":{"ha":371,"x_min":0,"x_max":372,"o":"m 359 1238 q 365 1232 359 1238 q 371 1210 371 1226 q 359 1183 371 1194 q 331 1171 347 1171 q 303 1183 314 1171 q 293 1211 293 1194 q 303 1239 293 1228 q 331 1250 314 1250 q 359 1238 347 1250 m 67 1238 q 73 1232 67 1238 q 79 1210 79 1226 q 67 1183 79 1194 q 39 1171 56 1171 q 11 1183 22 1171 q 0 1211 0 1194 q 11 1239 0 1228 q 39 1250 22 1250 q 67 1238 56 1250 z "},"«":{"ha":633,"x_min":0,"x_max":635,"o":"m 625 736 q 635 726 635 736 q 632 719 635 722 l 328 417 l 632 114 q 635 107 635 111 q 625 97 635 97 q 618 100 621 97 l 308 410 q 306 417 306 413 q 308 424 306 421 l 618 733 q 625 736 621 736 m 319 736 q 329 726 329 736 q 325 719 329 722 l 22 417 l 325 114 q 329 107 329 111 q 319 97 329 97 q 313 100 315 97 l 3 410 q 0 417 0 413 q 3 424 0 421 l 313 733 q 319 736 315 736 z "},"­":{"ha":576,"x_min":0,"x_max":578,"o":"m 10 426 l 567 426 q 568 426 567 426 q 576 417 576 426 q 568 407 576 407 l 567 407 l 10 407 q 0 417 0 407 q 10 426 0 426 z "},"¯":{"ha":815,"x_min":194,"x_max":622,"o":"m 204 1213 l 613 1213 q 622 1203 622 1213 q 613 1194 622 1194 l 204 1194 q 194 1203 194 1194 q 204 1213 194 1213 z "},"°":{"ha":222,"x_min":0,"x_max":224,"o":"m 110 1322 q 190 1290 157 1322 q 224 1210 224 1257 q 190 1131 224 1164 q 110 1099 157 1099 q 31 1131 63 1099 q 0 1210 0 1164 q 31 1290 0 1257 q 110 1322 63 1322 m 110 1304 q 44 1277 69 1304 q 18 1210 18 1250 q 44 1144 18 1171 q 110 1118 69 1118 q 176 1145 149 1118 q 204 1210 204 1172 q 176 1276 204 1249 q 110 1304 149 1304 z "},"±":{"ha":576,"x_min":0,"x_max":578,"o":"m 10 115 l 567 115 q 568 115 567 115 q 576 106 576 115 q 568 96 576 96 l 567 96 l 10 96 q 0 106 0 96 q 10 115 0 115 m 297 465 l 567 465 l 568 465 q 576 456 576 465 q 568 447 576 447 l 567 447 l 297 447 l 297 178 l 297 176 q 288 168 297 168 q 279 176 279 168 l 279 178 l 279 447 l 10 447 q 0 456 0 447 q 10 465 0 465 l 279 465 l 279 735 q 288 744 279 744 q 297 735 297 744 l 297 465 z "},"´":{"ha":267,"x_min":0,"x_max":268,"o":"m 257 1282 q 267 1272 267 1282 q 261 1264 267 1267 l 14 1140 q 10 1139 11 1139 q 0 1149 0 1139 q 6 1157 0 1154 l 253 1281 q 257 1282 256 1282 z "},"¸":{"ha":194,"x_min":0,"x_max":196,"o":"m 165 -10 l 165 -10 q 175 -19 175 -10 q 172 -25 175 -22 l 97 -140 q 167 -177 139 -146 q 196 -250 196 -208 q 163 -328 196 -296 q 81 -361 129 -361 q 3 -329 33 -361 q 0 -322 0 -326 q 10 -312 0 -312 q 17 -317 14 -312 q 82 -343 42 -343 q 149 -316 121 -343 q 176 -250 176 -289 q 149 -184 176 -211 q 82 -157 121 -157 q 81 -157 82 -157 q 81 -157 81 -157 l 81 -157 q 72 -147 72 -156 q 75 -142 72 -144 l 157 -14 q 165 -10 160 -10 z "},"º":{"ha":611,"x_min":194,"x_max":418,"o":"m 304 1322 q 385 1290 351 1322 q 418 1210 418 1257 q 385 1131 418 1164 q 304 1099 351 1099 q 226 1131 257 1099 q 194 1210 194 1164 q 226 1290 194 1257 q 304 1322 257 1322 m 304 1304 q 238 1277 264 1304 q 213 1210 213 1250 q 238 1144 213 1171 q 304 1118 264 1118 q 371 1145 343 1118 q 399 1210 399 1172 q 371 1276 399 1249 q 304 1304 343 1304 z "},"»":{"ha":633,"x_min":0,"x_max":635,"o":"m 10 736 q 17 733 14 736 l 326 424 q 329 417 329 421 q 326 410 329 413 l 17 100 q 10 97 14 97 q 0 107 0 97 q 3 114 0 111 l 306 417 l 3 719 q 0 726 0 722 q 10 736 0 736 m 315 736 q 322 733 319 736 l 632 424 q 635 417 635 421 q 632 410 635 413 l 322 100 q 315 97 319 97 q 306 107 306 97 q 308 114 306 111 l 613 417 l 308 719 q 306 726 306 722 q 315 736 306 736 z "},"¿":{"ha":494,"x_min":0,"x_max":496,"o":"m 360 865 q 355 870 360 865 q 350 889 350 875 q 360 913 350 903 q 385 922 371 922 q 408 913 399 922 q 417 889 417 903 q 408 865 417 875 q 385 856 399 856 q 360 865 371 856 m 257 -192 q 39 -87 101 -192 q 0 65 0 -25 q 11 147 0 108 q 48 223 22 185 q 93 285 74 261 q 151 351 113 308 q 165 365 161 361 q 231 441 206 410 q 288 521 256 472 q 340 626 319 569 q 372 749 361 682 q 381 756 374 756 q 390 747 390 756 q 390 744 390 746 q 358 619 379 678 q 303 511 336 561 q 245 429 271 461 q 179 353 219 397 q 165 339 175 349 q 108 273 126 296 q 64 214 89 250 q 28 142 39 178 q 18 65 18 106 q 54 -78 18 -21 q 257 -174 113 -174 l 257 -174 q 479 -86 381 -175 q 486 -83 482 -83 q 496 -93 496 -83 q 492 -99 496 -96 q 257 -192 388 -193 z "},"À":{"ha":1150,"x_min":194,"x_max":957,"o":"m 575 860 q 585 854 582 860 l 956 -14 q 957 -17 957 -15 q 947 -26 957 -26 q 939 -21 942 -26 l 575 826 l 213 -21 q 204 -26 210 -26 q 194 -17 194 -26 q 196 -14 194 -15 l 567 854 q 575 860 569 860 m 485 1282 q 475 1272 475 1282 q 481 1264 475 1267 l 728 1140 q 732 1139 731 1139 q 742 1149 742 1139 q 736 1157 742 1154 l 489 1281 q 485 1282 486 1282 z "},"Á":{"ha":1150,"x_min":194,"x_max":957,"o":"m 575 860 q 585 854 582 860 l 956 -14 q 957 -17 957 -15 q 947 -26 957 -26 q 939 -21 942 -26 l 575 826 l 213 -21 q 204 -26 210 -26 q 194 -17 194 -26 q 196 -14 194 -15 l 567 854 q 575 860 569 860 m 706 1282 q 715 1272 715 1282 q 710 1264 715 1267 l 463 1140 q 458 1139 460 1139 q 449 1149 449 1139 q 454 1157 449 1154 l 701 1281 q 706 1282 704 1282 z "},"Â":{"ha":1150,"x_min":194,"x_max":957,"o":"m 575 860 q 585 854 582 860 l 956 -14 q 957 -17 957 -15 q 947 -26 957 -26 q 939 -21 942 -26 l 575 826 l 213 -21 q 204 -26 210 -26 q 194 -17 194 -26 q 196 -14 194 -15 l 567 854 q 575 860 569 860 m 567 1282 q 571 1281 569 1282 l 818 1157 q 824 1149 824 1154 q 815 1139 824 1139 q 810 1140 813 1139 l 567 1263 l 324 1140 q 318 1139 321 1139 q 310 1149 310 1139 q 315 1157 310 1154 l 563 1281 q 567 1282 564 1282 z "},"Ã":{"ha":1150,"x_min":194,"x_max":957,"o":"m 575 860 q 585 854 582 860 l 956 -14 q 957 -17 957 -15 q 947 -26 957 -26 q 939 -21 942 -26 l 575 826 l 213 -21 q 204 -26 210 -26 q 194 -17 194 -26 q 196 -14 194 -15 l 567 854 q 575 860 569 860 m 447 1267 q 503 1258 476 1267 q 542 1242 529 1250 q 576 1217 556 1233 q 608 1194 597 1201 q 643 1180 619 1188 q 694 1172 667 1172 q 775 1201 731 1172 l 811 1232 q 818 1235 814 1235 q 828 1225 828 1235 q 825 1218 828 1221 q 785 1186 808 1203 q 694 1154 736 1154 q 638 1163 664 1154 q 599 1179 613 1171 q 565 1203 586 1188 q 533 1226 544 1219 q 498 1241 521 1233 q 447 1249 475 1249 q 367 1219 411 1249 l 329 1189 q 322 1186 326 1186 q 314 1196 314 1186 q 317 1203 314 1200 q 356 1235 332 1219 q 447 1267 406 1267 z "},"Ä":{"ha":1150,"x_min":194,"x_max":957,"o":"m 575 860 q 585 854 582 860 l 956 -14 q 957 -17 957 -15 q 947 -26 957 -26 q 939 -21 942 -26 l 575 826 l 213 -21 q 204 -26 210 -26 q 194 -17 194 -26 q 196 -14 194 -15 l 567 854 q 575 860 569 860 m 723 1238 q 729 1232 723 1238 q 735 1210 735 1226 q 723 1183 735 1194 q 694 1171 711 1171 q 667 1183 678 1171 q 656 1211 656 1194 q 667 1239 656 1228 q 694 1250 678 1250 q 723 1238 711 1250 m 431 1238 q 437 1232 431 1238 q 443 1210 443 1226 q 431 1183 443 1194 q 402 1171 419 1171 q 374 1183 385 1171 q 364 1211 364 1194 q 374 1239 364 1228 q 402 1250 385 1250 q 431 1238 419 1250 z "},"Å":{"ha":1150,"x_min":194,"x_max":957,"o":"m 575 860 q 585 854 582 860 l 956 -14 q 957 -17 957 -15 q 947 -26 957 -26 q 939 -21 942 -26 l 575 826 l 213 -21 q 204 -26 210 -26 q 194 -17 194 -26 q 196 -14 194 -15 l 567 854 q 575 860 569 860 m 571 1322 q 651 1290 618 1322 q 685 1210 685 1257 q 651 1131 685 1164 q 571 1099 618 1099 q 493 1131 524 1099 q 463 1210 463 1164 q 493 1290 463 1257 q 571 1322 524 1322 m 571 1304 q 506 1277 532 1304 q 481 1210 481 1250 q 506 1144 481 1171 q 571 1118 532 1118 q 639 1145 611 1118 q 667 1210 667 1172 q 639 1276 667 1249 q 571 1304 611 1304 z "},"Æ":{"ha":1771,"x_min":193,"x_max":1579,"o":"m 211 -24 q 202 -26 207 -28 q 195 -20 197 -25 q 197 -11 193 -15 l 939 856 q 947 860 942 860 l 947 860 l 1567 860 q 1576 855 1574 860 q 1576 846 1578 850 q 1567 842 1574 842 l 957 842 l 957 426 l 1506 426 q 1514 422 1511 426 q 1514 412 1517 417 q 1506 407 1511 407 l 957 407 l 957 -8 l 1567 -8 q 1576 -12 1574 -7 q 1576 -22 1578 -17 q 1567 -26 1574 -26 l 947 -26 l 947 -26 q 938 -15 938 -26 l 938 825 l 211 -24 z "},"Ç":{"ha":1150,"x_min":194,"x_max":957,"o":"m 638 860 q 954 733 828 860 q 957 726 957 731 q 947 717 957 717 q 940 719 943 717 q 638 842 819 842 q 334 720 456 842 q 213 417 213 599 q 334 113 213 235 q 638 -8 456 -8 q 940 114 819 -8 q 947 117 943 117 q 957 107 957 117 q 954 100 957 103 q 647 -26 831 -22 l 574 -140 q 643 -177 615 -146 q 671 -250 671 -208 q 638 -328 671 -296 q 557 -361 604 -361 q 478 -329 510 -361 q 475 -322 475 -326 q 485 -312 475 -312 q 492 -317 489 -312 q 557 -343 518 -343 q 625 -316 597 -343 q 653 -250 653 -289 q 625 -184 653 -211 q 557 -157 597 -157 l 557 -157 q 556 -157 557 -157 l 556 -157 q 547 -147 547 -156 q 550 -142 547 -144 l 625 -26 q 317 104 440 -22 q 194 417 194 231 q 322 733 194 606 q 638 860 449 860 z "},"È":{"ha":1026,"x_min":194,"x_max":833,"o":"m 204 860 l 824 860 q 833 851 833 860 q 824 842 833 842 l 204 842 q 194 851 194 842 q 204 860 194 860 m 204 426 l 761 426 q 771 417 771 426 q 761 407 771 407 l 204 407 q 194 417 194 407 q 204 426 194 426 m 204 -8 l 824 -8 q 833 -17 833 -8 q 824 -26 833 -26 l 204 -26 q 194 -17 194 -26 q 204 -8 194 -8 m 383 1282 q 374 1272 374 1282 q 379 1264 374 1267 l 628 1140 q 632 1139 629 1139 q 640 1149 640 1139 q 635 1157 640 1154 l 388 1281 q 383 1282 386 1282 z "},"É":{"ha":1026,"x_min":194,"x_max":833,"o":"m 204 860 l 824 860 q 833 851 833 860 q 824 842 833 842 l 204 842 q 194 851 194 842 q 204 860 194 860 m 204 426 l 761 426 q 771 417 771 426 q 761 407 771 407 l 204 407 q 194 417 194 407 q 204 426 194 426 m 204 -8 l 824 -8 q 833 -17 833 -8 q 824 -26 833 -26 l 204 -26 q 194 -17 194 -26 q 204 -8 194 -8 m 632 1282 q 640 1272 640 1282 q 636 1264 640 1267 l 388 1140 q 383 1139 386 1139 q 374 1149 374 1139 q 379 1157 374 1154 l 628 1281 q 632 1282 629 1282 z "},"Ê":{"ha":1026,"x_min":194,"x_max":833,"o":"m 204 860 l 824 860 q 833 851 833 860 q 824 842 833 842 l 204 842 q 194 851 194 842 q 204 860 194 860 m 204 426 l 761 426 q 771 417 771 426 q 761 407 771 407 l 204 407 q 194 417 194 407 q 204 426 194 426 m 204 -8 l 824 -8 q 833 -17 833 -8 q 824 -26 833 -26 l 204 -26 q 194 -17 194 -26 q 204 -8 194 -8 m 547 1282 q 551 1281 550 1282 l 799 1157 q 804 1149 804 1154 q 796 1139 804 1139 q 790 1140 793 1139 l 547 1263 l 304 1140 q 299 1139 301 1139 q 290 1149 290 1139 q 296 1157 290 1154 l 543 1281 q 547 1282 544 1282 z "},"Ë":{"ha":1026,"x_min":194,"x_max":833,"o":"m 204 860 l 824 860 q 833 851 833 860 q 824 842 833 842 l 204 842 q 194 851 194 842 q 204 860 194 860 m 204 426 l 761 426 q 771 417 771 426 q 761 407 771 407 l 204 407 q 194 417 194 407 q 204 426 194 426 m 204 -8 l 824 -8 q 833 -17 833 -8 q 824 -26 833 -26 l 204 -26 q 194 -17 194 -26 q 204 -8 194 -8 m 706 1238 q 712 1232 706 1238 q 718 1210 718 1226 q 706 1183 718 1194 q 678 1171 694 1171 q 650 1183 661 1171 q 639 1211 639 1194 q 650 1239 639 1228 q 678 1250 661 1250 q 706 1238 694 1250 m 415 1238 q 420 1232 415 1238 q 426 1210 426 1226 q 415 1183 426 1194 q 385 1171 403 1171 q 358 1183 368 1171 q 347 1211 347 1194 q 358 1239 347 1228 q 385 1250 368 1250 q 415 1238 403 1250 z "},"Ì":{"ha":407,"x_min":92,"x_max":360,"o":"m 103 1282 q 93 1272 93 1282 q 99 1264 93 1267 l 346 1140 q 350 1139 349 1139 q 360 1149 360 1139 q 354 1157 360 1154 l 107 1281 q 103 1282 104 1282 m 194 850 q 204 860 194 860 q 213 850 213 860 l 213 -17 q 203 -26 213 -26 q 194 -17 194 -26 l 194 850 z "},"Í":{"ha":407,"x_min":65,"x_max":333,"o":"m 324 1282 q 333 1272 333 1282 q 328 1264 333 1267 l 81 1140 q 76 1139 78 1139 q 67 1149 67 1139 q 72 1157 67 1154 l 319 1281 q 324 1282 322 1282 m 194 850 q 204 860 194 860 q 213 850 213 860 l 213 -17 q 203 -26 213 -26 q 194 -17 194 -26 l 194 850 z "},"Î":{"ha":407,"x_min":-49,"x_max":468,"o":"m 210 1282 q 214 1281 213 1282 l 461 1157 q 467 1149 467 1154 q 458 1139 467 1139 q 453 1140 456 1139 l 210 1263 l -33 1140 q -39 1139 -36 1139 q -47 1149 -47 1139 q -42 1157 -47 1154 l 206 1281 q 210 1282 207 1282 m 194 850 q 204 860 194 860 q 213 850 213 860 l 213 -17 q 203 -26 213 -26 q 194 -17 194 -26 l 194 850 z "},"Ï":{"ha":407,"x_min":18,"x_max":390,"o":"m 378 1238 q 384 1232 378 1238 q 390 1210 390 1226 q 378 1183 390 1194 q 350 1171 367 1171 q 322 1183 333 1171 q 311 1211 311 1194 q 322 1239 311 1228 q 350 1250 333 1250 q 378 1238 367 1250 m 85 1238 q 91 1232 85 1238 q 97 1210 97 1226 q 85 1183 97 1194 q 57 1171 74 1171 q 29 1183 40 1171 q 18 1211 18 1194 q 29 1239 18 1228 q 57 1250 40 1250 q 85 1238 74 1250 m 194 850 q 204 860 194 860 q 213 850 213 860 l 213 -17 q 203 -26 213 -26 q 194 -17 194 -26 l 194 850 z "},"Ð":{"ha":1026,"x_min":-29,"x_max":833,"o":"m 328 842 l 213 842 l 213 426 l 539 426 q 549 417 549 426 q 539 407 549 407 l 213 407 l 213 -8 l 328 -8 q 708 114 588 -8 q 814 417 814 219 q 708 719 814 614 q 328 842 588 842 m 204 860 l 328 860 q 722 733 594 860 q 833 417 833 622 q 722 100 833 211 q 328 -26 594 -26 l 204 -26 q 194 -17 194 -26 l 194 407 l -19 407 q -29 417 -29 407 q -19 426 -29 426 l 194 426 l 194 850 q 204 860 194 860 z "},"Ñ":{"ha":1026,"x_min":194,"x_max":833,"o":"m 386 1267 q 442 1258 415 1267 q 481 1242 468 1250 q 515 1217 494 1233 q 547 1194 536 1201 q 582 1180 558 1188 q 633 1172 606 1172 q 714 1201 669 1172 l 750 1232 q 757 1235 753 1235 q 767 1225 767 1235 q 764 1218 767 1221 q 724 1186 747 1203 q 633 1154 675 1154 q 577 1163 603 1154 q 538 1179 551 1171 q 504 1203 525 1188 q 472 1226 483 1219 q 437 1241 460 1233 q 386 1249 414 1249 q 306 1219 350 1249 l 268 1189 q 261 1186 265 1186 q 253 1196 253 1186 q 256 1203 253 1200 q 294 1235 271 1219 q 386 1267 344 1267 m 814 850 q 824 860 814 860 q 833 850 833 860 l 833 -17 q 824 -26 833 -26 q 815 -22 818 -26 l 213 821 l 213 -17 q 203 -26 213 -26 q 194 -17 194 -26 l 194 850 q 204 860 194 860 q 211 856 208 860 l 814 13 l 814 850 z "},"Ò":{"ha":1274,"x_min":194,"x_max":1081,"o":"m 526 1282 q 517 1272 517 1282 q 522 1264 517 1267 l 769 1140 q 774 1139 772 1139 q 783 1149 783 1139 q 778 1157 783 1154 l 531 1281 q 526 1282 528 1282 m 626 860 q 948 730 815 860 q 1081 417 1081 600 q 948 103 1081 233 q 626 -26 815 -26 q 403 33 503 -26 q 249 194 304 93 q 194 417 194 296 q 249 639 194 538 q 403 800 304 740 q 626 860 503 860 m 626 842 q 330 719 447 842 q 213 417 213 596 q 330 115 213 238 q 626 -8 447 -8 q 935 116 808 -8 q 1063 417 1063 240 q 935 717 1063 593 q 626 842 808 842 z "},"Ó":{"ha":1274,"x_min":194,"x_max":1081,"o":"m 747 1282 q 757 1272 757 1282 q 751 1264 757 1267 l 504 1140 q 500 1139 501 1139 q 490 1149 490 1139 q 496 1157 490 1154 l 743 1281 q 747 1282 746 1282 m 626 860 q 948 730 815 860 q 1081 417 1081 600 q 948 103 1081 233 q 626 -26 815 -26 q 403 33 503 -26 q 249 194 304 93 q 194 417 194 296 q 249 639 194 538 q 403 800 304 740 q 626 860 503 860 m 626 842 q 330 719 447 842 q 213 417 213 596 q 330 115 213 238 q 626 -8 447 -8 q 935 116 808 -8 q 1063 417 1063 240 q 935 717 1063 593 q 626 842 808 842 z "},"Ô":{"ha":1274,"x_min":194,"x_max":1081,"o":"m 628 1282 q 632 1281 631 1282 l 879 1157 q 885 1149 885 1154 q 876 1139 885 1139 q 871 1140 874 1139 l 628 1263 l 385 1140 q 379 1139 382 1139 q 371 1149 371 1139 q 376 1157 371 1154 l 624 1281 q 628 1282 625 1282 m 626 860 q 948 730 815 860 q 1081 417 1081 600 q 948 103 1081 233 q 626 -26 815 -26 q 403 33 503 -26 q 249 194 304 93 q 194 417 194 296 q 249 639 194 538 q 403 800 304 740 q 626 860 503 860 m 626 842 q 330 719 447 842 q 213 417 213 596 q 330 115 213 238 q 626 -8 447 -8 q 935 116 808 -8 q 1063 417 1063 240 q 935 717 1063 593 q 626 842 808 842 z "},"Õ":{"ha":1274,"x_min":194,"x_max":1081,"o":"m 522 1267 q 578 1258 551 1267 q 617 1242 604 1250 q 651 1217 631 1233 q 683 1194 672 1201 q 718 1180 694 1188 q 769 1172 742 1172 q 850 1201 806 1172 l 886 1232 q 893 1235 889 1235 q 903 1225 903 1235 q 900 1218 903 1221 q 860 1186 883 1203 q 769 1154 811 1154 q 713 1163 739 1154 q 674 1179 688 1171 q 640 1203 661 1188 q 608 1226 619 1219 q 573 1241 596 1233 q 522 1249 550 1249 q 442 1219 486 1249 l 404 1189 q 397 1186 401 1186 q 389 1196 389 1186 q 392 1203 389 1200 q 431 1235 407 1219 q 522 1267 481 1267 m 626 860 q 948 730 815 860 q 1081 417 1081 600 q 948 103 1081 233 q 626 -26 815 -26 q 403 33 503 -26 q 249 194 304 93 q 194 417 194 296 q 249 639 194 538 q 403 800 304 740 q 626 860 503 860 m 626 842 q 330 719 447 842 q 213 417 213 596 q 330 115 213 238 q 626 -8 447 -8 q 935 116 808 -8 q 1063 417 1063 240 q 935 717 1063 593 q 626 842 808 842 z "},"Ö":{"ha":1274,"x_min":194,"x_max":1081,"o":"m 813 1238 q 819 1232 813 1238 q 825 1210 825 1226 q 813 1183 825 1194 q 785 1171 801 1171 q 757 1183 768 1171 q 746 1211 746 1194 q 757 1239 746 1228 q 785 1250 768 1250 q 813 1238 801 1250 m 522 1238 q 527 1232 522 1238 q 533 1210 533 1226 q 522 1183 533 1194 q 492 1171 510 1171 q 465 1183 475 1171 q 454 1211 454 1194 q 465 1239 454 1228 q 492 1250 475 1250 q 522 1238 510 1250 m 626 860 q 948 730 815 860 q 1081 417 1081 600 q 948 103 1081 233 q 626 -26 815 -26 q 403 33 503 -26 q 249 194 304 93 q 194 417 194 296 q 249 639 194 538 q 403 800 304 740 q 626 860 503 860 m 626 842 q 330 719 447 842 q 213 417 213 596 q 330 115 213 238 q 626 -8 447 -8 q 935 116 808 -8 q 1063 417 1063 240 q 935 717 1063 593 q 626 842 808 842 z "},"×":{"ha":801,"x_min":190,"x_max":613,"o":"m 401 429 l 592 621 q 605 621 599 628 q 606 607 611 614 l 604 607 l 414 417 l 604 226 l 606 226 q 605 213 611 219 q 592 213 599 206 l 401 404 l 211 213 l 210 213 q 197 213 204 206 q 197 226 190 219 l 388 417 l 197 607 q 197 621 190 614 q 210 621 204 628 l 211 621 l 401 429 z "},"Ø":{"ha":1274,"x_min":194,"x_max":1081,"o":"m 318 128 l 921 731 q 626 842 797 842 q 330 719 447 842 q 213 417 213 596 q 318 128 213 247 m 331 114 q 626 -8 449 -8 q 935 116 808 -8 q 1063 417 1063 240 q 935 717 1063 593 l 331 114 m 318 101 l 236 18 l 235 18 q 222 18 229 11 q 222 31 215 25 l 222 32 l 306 115 q 194 417 194 240 q 249 639 194 538 q 403 800 304 740 q 626 860 503 860 q 935 743 804 860 l 1003 811 q 1015 811 1008 818 q 1015 799 1022 804 l 947 731 q 1046 588 1011 669 q 1081 417 1081 507 q 948 103 1081 233 q 626 -26 815 -26 q 318 101 442 -26 z "},"Ù":{"ha":1081,"x_min":194,"x_max":888,"o":"m 433 1282 q 424 1272 424 1282 q 429 1264 424 1267 l 678 1140 q 682 1139 679 1139 q 690 1149 690 1139 q 685 1157 690 1154 l 438 1281 q 433 1282 436 1282 m 204 860 q 213 850 213 860 l 213 319 q 308 88 213 183 q 540 -8 404 -8 q 772 88 676 -8 q 868 319 868 183 l 868 850 q 878 860 868 860 q 888 850 888 860 l 888 319 q 786 75 888 176 q 541 -26 685 -26 q 296 75 397 -26 q 194 319 194 176 l 194 850 q 204 860 194 860 z "},"Ú":{"ha":1081,"x_min":194,"x_max":888,"o":"m 682 1282 q 690 1272 690 1282 q 686 1264 690 1267 l 438 1140 q 433 1139 436 1139 q 424 1149 424 1139 q 429 1157 424 1154 l 678 1281 q 682 1282 679 1282 m 204 860 q 213 850 213 860 l 213 319 q 308 88 213 183 q 540 -8 404 -8 q 772 88 676 -8 q 868 319 868 183 l 868 850 q 878 860 868 860 q 888 850 888 860 l 888 319 q 786 75 888 176 q 541 -26 685 -26 q 296 75 397 -26 q 194 319 194 176 l 194 850 q 204 860 194 860 z "},"Û":{"ha":1081,"x_min":194,"x_max":888,"o":"m 542 1282 q 546 1281 544 1282 l 793 1157 q 799 1149 799 1154 q 790 1139 799 1139 q 785 1140 788 1139 l 542 1263 l 299 1140 q 293 1139 296 1139 q 285 1149 285 1139 q 290 1157 285 1154 l 538 1281 q 542 1282 539 1282 m 204 860 q 213 850 213 860 l 213 319 q 308 88 213 183 q 540 -8 404 -8 q 772 88 676 -8 q 868 319 868 183 l 868 850 q 878 860 868 860 q 888 850 888 860 l 888 319 q 786 75 888 176 q 541 -26 685 -26 q 296 75 397 -26 q 194 319 194 176 l 194 850 q 204 860 194 860 z "},"Ü":{"ha":1081,"x_min":194,"x_max":888,"o":"m 726 1238 q 732 1232 726 1238 q 738 1210 738 1226 q 726 1183 738 1194 q 697 1171 714 1171 q 669 1183 681 1171 q 658 1211 658 1194 q 669 1239 658 1228 q 697 1250 681 1250 q 726 1238 714 1250 m 434 1238 q 440 1232 434 1238 q 446 1210 446 1226 q 434 1183 446 1194 q 405 1171 422 1171 q 377 1183 388 1171 q 367 1211 367 1194 q 377 1239 367 1228 q 405 1250 388 1250 q 434 1238 422 1250 m 204 860 q 213 850 213 860 l 213 319 q 308 88 213 183 q 540 -8 404 -8 q 772 88 676 -8 q 868 319 868 183 l 868 850 q 878 860 868 860 q 888 850 888 860 l 888 319 q 786 75 888 176 q 541 -26 685 -26 q 296 75 397 -26 q 194 319 194 176 l 194 850 q 204 860 194 860 z "},"Ý":{"ha":1151,"x_min":194,"x_max":958,"o":"m 714 1282 q 722 1272 722 1282 q 718 1264 722 1267 l 469 1140 q 465 1139 468 1139 q 456 1149 456 1139 q 461 1157 456 1154 l 710 1281 q 714 1282 711 1282 m 947 860 q 957 850 957 860 q 956 844 957 847 l 585 372 l 585 -17 l 585 -18 q 576 -26 585 -26 q 567 -18 567 -26 l 567 -17 l 567 372 l 197 844 q 194 850 194 847 q 204 860 194 860 q 211 856 208 860 l 576 392 l 940 856 q 947 860 943 860 z "},"Þ":{"ha":1026,"x_min":194,"x_max":833,"o":"m 204 860 q 214 850 214 860 l 214 658 l 514 658 q 719 613 636 658 q 833 417 833 550 q 719 222 833 285 q 514 175 636 175 l 214 175 l 214 -17 q 204 -26 214 -26 q 194 -17 194 -26 l 194 185 l 194 647 q 194 649 194 649 q 194 651 194 650 l 194 850 q 204 860 194 860 m 214 640 l 214 193 l 514 193 q 711 238 631 193 q 814 417 814 296 q 711 596 814 539 q 514 640 632 640 l 214 640 z "},"ß":{"ha":1036,"x_min":194,"x_max":843,"o":"m 451 860 l 451 860 q 633 819 567 858 q 713 682 713 772 q 650 550 713 610 q 610 511 615 517 q 593 471 593 492 q 629 419 594 444 q 674 392 643 410 q 714 368 706 374 q 801 296 772 333 q 842 169 842 242 q 831 90 842 126 q 800 28 819 54 q 753 -18 781 3 q 567 -71 678 -71 q 379 33 450 -71 q 376 38 376 35 q 386 47 376 47 q 394 43 392 47 q 567 -53 460 -53 q 742 -3 672 -53 q 824 169 824 57 q 788 283 824 236 q 704 353 760 319 q 665 376 697 357 q 619 404 633 394 q 575 471 576 435 q 596 522 575 497 q 638 564 601 529 q 678 617 664 590 q 693 682 693 643 q 625 803 693 763 q 451 842 561 840 q 276 778 340 842 q 213 603 213 715 l 213 -17 q 203 -26 213 -26 q 194 -17 194 -26 l 194 603 q 263 791 194 722 q 451 860 332 860 z "},"à":{"ha":1150,"x_min":194,"x_max":957,"o":"m 575 860 q 585 854 582 860 l 956 -14 q 957 -17 957 -15 q 947 -26 957 -26 q 939 -21 942 -26 l 575 826 l 213 -21 q 204 -26 210 -26 q 194 -17 194 -26 q 196 -14 194 -15 l 567 854 q 575 860 569 860 m 485 1282 q 475 1272 475 1282 q 481 1264 475 1267 l 728 1140 q 732 1139 731 1139 q 742 1149 742 1139 q 736 1157 742 1154 l 489 1281 q 485 1282 486 1282 z "},"á":{"ha":1150,"x_min":194,"x_max":957,"o":"m 575 860 q 585 854 582 860 l 956 -14 q 957 -17 957 -15 q 947 -26 957 -26 q 939 -21 942 -26 l 575 826 l 213 -21 q 204 -26 210 -26 q 194 -17 194 -26 q 196 -14 194 -15 l 567 854 q 575 860 569 860 m 706 1282 q 715 1272 715 1282 q 710 1264 715 1267 l 463 1140 q 458 1139 460 1139 q 449 1149 449 1139 q 454 1157 449 1154 l 701 1281 q 706 1282 704 1282 z "},"â":{"ha":1150,"x_min":194,"x_max":957,"o":"m 575 860 q 585 854 582 860 l 956 -14 q 957 -17 957 -15 q 947 -26 957 -26 q 939 -21 942 -26 l 575 826 l 213 -21 q 204 -26 210 -26 q 194 -17 194 -26 q 196 -14 194 -15 l 567 854 q 575 860 569 860 m 567 1282 q 571 1281 569 1282 l 818 1157 q 824 1149 824 1154 q 815 1139 824 1139 q 810 1140 813 1139 l 567 1263 l 324 1140 q 318 1139 321 1139 q 310 1149 310 1139 q 315 1157 310 1154 l 563 1281 q 567 1282 564 1282 z "},"ã":{"ha":1150,"x_min":194,"x_max":957,"o":"m 575 860 q 585 854 582 860 l 956 -14 q 957 -17 957 -15 q 947 -26 957 -26 q 939 -21 942 -26 l 575 826 l 213 -21 q 204 -26 210 -26 q 194 -17 194 -26 q 196 -14 194 -15 l 567 854 q 575 860 569 860 m 447 1267 q 503 1258 476 1267 q 542 1242 529 1250 q 576 1217 556 1233 q 608 1194 597 1201 q 643 1180 619 1188 q 694 1172 667 1172 q 775 1201 731 1172 l 811 1232 q 818 1235 814 1235 q 828 1225 828 1235 q 825 1218 828 1221 q 785 1186 808 1203 q 694 1154 736 1154 q 638 1163 664 1154 q 599 1179 613 1171 q 565 1203 586 1188 q 533 1226 544 1219 q 498 1241 521 1233 q 447 1249 475 1249 q 367 1219 411 1249 l 329 1189 q 322 1186 326 1186 q 314 1196 314 1186 q 317 1203 314 1200 q 356 1235 332 1219 q 447 1267 406 1267 z "},"ä":{"ha":1150,"x_min":194,"x_max":957,"o":"m 575 860 q 585 854 582 860 l 956 -14 q 957 -17 957 -15 q 947 -26 957 -26 q 939 -21 942 -26 l 575 826 l 213 -21 q 204 -26 210 -26 q 194 -17 194 -26 q 196 -14 194 -15 l 567 854 q 575 860 569 860 m 723 1238 q 729 1232 723 1238 q 735 1210 735 1226 q 723 1183 735 1194 q 694 1171 711 1171 q 667 1183 678 1171 q 656 1211 656 1194 q 667 1239 656 1228 q 694 1250 678 1250 q 723 1238 711 1250 m 431 1238 q 437 1232 431 1238 q 443 1210 443 1226 q 431 1183 443 1194 q 402 1171 419 1171 q 374 1183 385 1171 q 364 1211 364 1194 q 374 1239 364 1228 q 402 1250 385 1250 q 431 1238 419 1250 z "},"å":{"ha":1150,"x_min":194,"x_max":957,"o":"m 575 860 q 585 854 582 860 l 956 -14 q 957 -17 957 -15 q 947 -26 957 -26 q 939 -21 942 -26 l 575 826 l 213 -21 q 204 -26 210 -26 q 194 -17 194 -26 q 196 -14 194 -15 l 567 854 q 575 860 569 860 m 571 1322 q 651 1290 618 1322 q 685 1210 685 1257 q 651 1131 685 1164 q 571 1099 618 1099 q 493 1131 524 1099 q 463 1210 463 1164 q 493 1290 463 1257 q 571 1322 524 1322 m 571 1304 q 506 1277 532 1304 q 481 1210 481 1250 q 506 1144 481 1171 q 571 1118 532 1118 q 639 1145 611 1118 q 667 1210 667 1172 q 639 1276 667 1249 q 571 1304 611 1304 z "},"æ":{"ha":1771,"x_min":193,"x_max":1579,"o":"m 211 -24 q 202 -26 207 -28 q 195 -20 197 -25 q 197 -11 193 -15 l 939 856 q 947 860 942 860 l 947 860 l 1567 860 q 1576 855 1574 860 q 1576 846 1578 850 q 1567 842 1574 842 l 957 842 l 957 426 l 1506 426 q 1514 422 1511 426 q 1514 412 1517 417 q 1506 407 1511 407 l 957 407 l 957 -8 l 1567 -8 q 1576 -12 1574 -7 q 1576 -22 1578 -17 q 1567 -26 1574 -26 l 947 -26 l 947 -26 q 938 -15 938 -26 l 938 825 l 211 -24 z "},"ç":{"ha":1150,"x_min":194,"x_max":957,"o":"m 638 860 q 954 733 828 860 q 957 726 957 731 q 947 717 957 717 q 940 719 943 717 q 638 842 819 842 q 334 720 456 842 q 213 417 213 599 q 334 113 213 235 q 638 -8 456 -8 q 940 114 819 -8 q 947 117 943 117 q 957 107 957 117 q 954 100 957 103 q 647 -26 831 -22 l 574 -140 q 643 -177 615 -146 q 671 -250 671 -208 q 638 -328 671 -296 q 557 -361 604 -361 q 478 -329 510 -361 q 475 -322 475 -326 q 485 -312 475 -312 q 492 -317 489 -312 q 557 -343 518 -343 q 625 -316 597 -343 q 653 -250 653 -289 q 625 -184 653 -211 q 557 -157 597 -157 l 557 -157 q 556 -157 557 -157 l 556 -157 q 547 -147 547 -156 q 550 -142 547 -144 l 625 -26 q 317 104 440 -22 q 194 417 194 231 q 322 733 194 606 q 638 860 449 860 z "},"è":{"ha":1026,"x_min":194,"x_max":833,"o":"m 204 860 l 824 860 q 833 851 833 860 q 824 842 833 842 l 204 842 q 194 851 194 842 q 204 860 194 860 m 204 426 l 761 426 q 771 417 771 426 q 761 407 771 407 l 204 407 q 194 417 194 407 q 204 426 194 426 m 204 -8 l 824 -8 q 833 -17 833 -8 q 824 -26 833 -26 l 204 -26 q 194 -17 194 -26 q 204 -8 194 -8 m 383 1282 q 374 1272 374 1282 q 379 1264 374 1267 l 628 1140 q 632 1139 629 1139 q 640 1149 640 1139 q 635 1157 640 1154 l 388 1281 q 383 1282 386 1282 z "},"é":{"ha":1026,"x_min":194,"x_max":833,"o":"m 204 860 l 824 860 q 833 851 833 860 q 824 842 833 842 l 204 842 q 194 851 194 842 q 204 860 194 860 m 204 426 l 761 426 q 771 417 771 426 q 761 407 771 407 l 204 407 q 194 417 194 407 q 204 426 194 426 m 204 -8 l 824 -8 q 833 -17 833 -8 q 824 -26 833 -26 l 204 -26 q 194 -17 194 -26 q 204 -8 194 -8 m 632 1282 q 640 1272 640 1282 q 636 1264 640 1267 l 388 1140 q 383 1139 386 1139 q 374 1149 374 1139 q 379 1157 374 1154 l 628 1281 q 632 1282 629 1282 z "},"ê":{"ha":1026,"x_min":194,"x_max":833,"o":"m 204 860 l 824 860 q 833 851 833 860 q 824 842 833 842 l 204 842 q 194 851 194 842 q 204 860 194 860 m 204 426 l 761 426 q 771 417 771 426 q 761 407 771 407 l 204 407 q 194 417 194 407 q 204 426 194 426 m 204 -8 l 824 -8 q 833 -17 833 -8 q 824 -26 833 -26 l 204 -26 q 194 -17 194 -26 q 204 -8 194 -8 m 547 1282 q 551 1281 550 1282 l 799 1157 q 804 1149 804 1154 q 796 1139 804 1139 q 790 1140 793 1139 l 547 1263 l 304 1140 q 299 1139 301 1139 q 290 1149 290 1139 q 296 1157 290 1154 l 543 1281 q 547 1282 544 1282 z "},"ë":{"ha":1026,"x_min":194,"x_max":833,"o":"m 204 860 l 824 860 q 833 851 833 860 q 824 842 833 842 l 204 842 q 194 851 194 842 q 204 860 194 860 m 204 426 l 761 426 q 771 417 771 426 q 761 407 771 407 l 204 407 q 194 417 194 407 q 204 426 194 426 m 204 -8 l 824 -8 q 833 -17 833 -8 q 824 -26 833 -26 l 204 -26 q 194 -17 194 -26 q 204 -8 194 -8 m 706 1238 q 712 1232 706 1238 q 718 1210 718 1226 q 706 1183 718 1194 q 678 1171 694 1171 q 650 1183 661 1171 q 639 1211 639 1194 q 650 1239 639 1228 q 678 1250 661 1250 q 706 1238 694 1250 m 415 1238 q 420 1232 415 1238 q 426 1210 426 1226 q 415 1183 426 1194 q 385 1171 403 1171 q 358 1183 368 1171 q 347 1211 347 1194 q 358 1239 347 1228 q 385 1250 368 1250 q 415 1238 403 1250 z "},"ì":{"ha":407,"x_min":92,"x_max":360,"o":"m 103 1282 q 93 1272 93 1282 q 99 1264 93 1267 l 346 1140 q 350 1139 349 1139 q 360 1149 360 1139 q 354 1157 360 1154 l 107 1281 q 103 1282 104 1282 m 194 850 q 204 860 194 860 q 213 850 213 860 l 213 -17 q 203 -26 213 -26 q 194 -17 194 -26 l 194 850 z "},"í":{"ha":407,"x_min":65,"x_max":333,"o":"m 324 1282 q 333 1272 333 1282 q 328 1264 333 1267 l 81 1140 q 76 1139 78 1139 q 67 1149 67 1139 q 72 1157 67 1154 l 319 1281 q 324 1282 322 1282 m 194 850 q 204 860 194 860 q 213 850 213 860 l 213 -17 q 203 -26 213 -26 q 194 -17 194 -26 l 194 850 z "},"î":{"ha":407,"x_min":-49,"x_max":468,"o":"m 210 1282 q 214 1281 213 1282 l 461 1157 q 467 1149 467 1154 q 458 1139 467 1139 q 453 1140 456 1139 l 210 1263 l -33 1140 q -39 1139 -36 1139 q -47 1149 -47 1139 q -42 1157 -47 1154 l 206 1281 q 210 1282 207 1282 m 194 850 q 204 860 194 860 q 213 850 213 860 l 213 -17 q 203 -26 213 -26 q 194 -17 194 -26 l 194 850 z "},"ï":{"ha":407,"x_min":18,"x_max":390,"o":"m 378 1238 q 384 1232 378 1238 q 390 1210 390 1226 q 378 1183 390 1194 q 350 1171 367 1171 q 322 1183 333 1171 q 311 1211 311 1194 q 322 1239 311 1228 q 350 1250 333 1250 q 378 1238 367 1250 m 85 1238 q 91 1232 85 1238 q 97 1210 97 1226 q 85 1183 97 1194 q 57 1171 74 1171 q 29 1183 40 1171 q 18 1211 18 1194 q 29 1239 18 1228 q 57 1250 40 1250 q 85 1238 74 1250 m 194 850 q 204 860 194 860 q 213 850 213 860 l 213 -17 q 203 -26 213 -26 q 194 -17 194 -26 l 194 850 z "},"ð":{"ha":1026,"x_min":-29,"x_max":833,"o":"m 328 842 l 213 842 l 213 426 l 539 426 q 549 417 549 426 q 539 407 549 407 l 213 407 l 213 -8 l 328 -8 q 708 114 588 -8 q 814 417 814 219 q 708 719 814 614 q 328 842 588 842 m 204 860 l 328 860 q 722 733 594 860 q 833 417 833 622 q 722 100 833 211 q 328 -26 594 -26 l 204 -26 q 194 -17 194 -26 l 194 407 l -19 407 q -29 417 -29 407 q -19 426 -29 426 l 194 426 l 194 850 q 204 860 194 860 z "},"ñ":{"ha":1026,"x_min":194,"x_max":833,"o":"m 386 1267 q 442 1258 415 1267 q 481 1242 468 1250 q 515 1217 494 1233 q 547 1194 536 1201 q 582 1180 558 1188 q 633 1172 606 1172 q 714 1201 669 1172 l 750 1232 q 757 1235 753 1235 q 767 1225 767 1235 q 764 1218 767 1221 q 724 1186 747 1203 q 633 1154 675 1154 q 577 1163 603 1154 q 538 1179 551 1171 q 504 1203 525 1188 q 472 1226 483 1219 q 437 1241 460 1233 q 386 1249 414 1249 q 306 1219 350 1249 l 268 1189 q 261 1186 265 1186 q 253 1196 253 1186 q 256 1203 253 1200 q 294 1235 271 1219 q 386 1267 344 1267 m 814 850 q 824 860 814 860 q 833 850 833 860 l 833 -17 q 824 -26 833 -26 q 815 -22 818 -26 l 213 821 l 213 -17 q 203 -26 213 -26 q 194 -17 194 -26 l 194 850 q 204 860 194 860 q 211 856 208 860 l 814 13 l 814 850 z "},"ò":{"ha":1274,"x_min":194,"x_max":1081,"o":"m 526 1282 q 517 1272 517 1282 q 522 1264 517 1267 l 769 1140 q 774 1139 772 1139 q 783 1149 783 1139 q 778 1157 783 1154 l 531 1281 q 526 1282 528 1282 m 626 860 q 948 730 815 860 q 1081 417 1081 600 q 948 103 1081 233 q 626 -26 815 -26 q 403 33 503 -26 q 249 194 304 93 q 194 417 194 296 q 249 639 194 538 q 403 800 304 740 q 626 860 503 860 m 626 842 q 330 719 447 842 q 213 417 213 596 q 330 115 213 238 q 626 -8 447 -8 q 935 116 808 -8 q 1063 417 1063 240 q 935 717 1063 593 q 626 842 808 842 z "},"ó":{"ha":1274,"x_min":194,"x_max":1081,"o":"m 747 1282 q 757 1272 757 1282 q 751 1264 757 1267 l 504 1140 q 500 1139 501 1139 q 490 1149 490 1139 q 496 1157 490 1154 l 743 1281 q 747 1282 746 1282 m 626 860 q 948 730 815 860 q 1081 417 1081 600 q 948 103 1081 233 q 626 -26 815 -26 q 403 33 503 -26 q 249 194 304 93 q 194 417 194 296 q 249 639 194 538 q 403 800 304 740 q 626 860 503 860 m 626 842 q 330 719 447 842 q 213 417 213 596 q 330 115 213 238 q 626 -8 447 -8 q 935 116 808 -8 q 1063 417 1063 240 q 935 717 1063 593 q 626 842 808 842 z "},"ô":{"ha":1274,"x_min":194,"x_max":1081,"o":"m 628 1282 q 632 1281 631 1282 l 879 1157 q 885 1149 885 1154 q 876 1139 885 1139 q 871 1140 874 1139 l 628 1263 l 385 1140 q 379 1139 382 1139 q 371 1149 371 1139 q 376 1157 371 1154 l 624 1281 q 628 1282 625 1282 m 626 860 q 948 730 815 860 q 1081 417 1081 600 q 948 103 1081 233 q 626 -26 815 -26 q 403 33 503 -26 q 249 194 304 93 q 194 417 194 296 q 249 639 194 538 q 403 800 304 740 q 626 860 503 860 m 626 842 q 330 719 447 842 q 213 417 213 596 q 330 115 213 238 q 626 -8 447 -8 q 935 116 808 -8 q 1063 417 1063 240 q 935 717 1063 593 q 626 842 808 842 z "},"õ":{"ha":1274,"x_min":194,"x_max":1081,"o":"m 522 1267 q 578 1258 551 1267 q 617 1242 604 1250 q 651 1217 631 1233 q 683 1194 672 1201 q 718 1180 694 1188 q 769 1172 742 1172 q 850 1201 806 1172 l 886 1232 q 893 1235 889 1235 q 903 1225 903 1235 q 900 1218 903 1221 q 860 1186 883 1203 q 769 1154 811 1154 q 713 1163 739 1154 q 674 1179 688 1171 q 640 1203 661 1188 q 608 1226 619 1219 q 573 1241 596 1233 q 522 1249 550 1249 q 442 1219 486 1249 l 404 1189 q 397 1186 401 1186 q 389 1196 389 1186 q 392 1203 389 1200 q 431 1235 407 1219 q 522 1267 481 1267 m 626 860 q 948 730 815 860 q 1081 417 1081 600 q 948 103 1081 233 q 626 -26 815 -26 q 403 33 503 -26 q 249 194 304 93 q 194 417 194 296 q 249 639 194 538 q 403 800 304 740 q 626 860 503 860 m 626 842 q 330 719 447 842 q 213 417 213 596 q 330 115 213 238 q 626 -8 447 -8 q 935 116 808 -8 q 1063 417 1063 240 q 935 717 1063 593 q 626 842 808 842 z "},"ö":{"ha":1274,"x_min":194,"x_max":1081,"o":"m 813 1238 q 819 1232 813 1238 q 825 1210 825 1226 q 813 1183 825 1194 q 785 1171 801 1171 q 757 1183 768 1171 q 746 1211 746 1194 q 757 1239 746 1228 q 785 1250 768 1250 q 813 1238 801 1250 m 522 1238 q 527 1232 522 1238 q 533 1210 533 1226 q 522 1183 533 1194 q 492 1171 510 1171 q 465 1183 475 1171 q 454 1211 454 1194 q 465 1239 454 1228 q 492 1250 475 1250 q 522 1238 510 1250 m 626 860 q 948 730 815 860 q 1081 417 1081 600 q 948 103 1081 233 q 626 -26 815 -26 q 403 33 503 -26 q 249 194 304 93 q 194 417 194 296 q 249 639 194 538 q 403 800 304 740 q 626 860 503 860 m 626 842 q 330 719 447 842 q 213 417 213 596 q 330 115 213 238 q 626 -8 447 -8 q 935 116 808 -8 q 1063 417 1063 240 q 935 717 1063 593 q 626 842 808 842 z "},"÷":{"ha":576,"x_min":0,"x_max":578,"o":"m 300 556 q 305 551 300 556 q 310 532 310 546 q 300 509 310 518 q 276 500 290 500 q 252 509 261 500 q 243 532 243 518 q 252 556 243 546 q 276 565 261 565 q 300 556 290 565 m 300 322 q 305 317 300 322 q 310 299 310 313 q 300 275 310 285 q 276 265 290 265 q 252 275 261 265 q 243 299 243 285 q 252 322 243 313 q 276 331 261 331 q 300 322 290 331 m 10 426 l 567 426 q 568 426 567 426 q 576 417 576 426 q 568 407 576 407 l 567 407 l 10 407 q 0 417 0 407 q 10 426 0 426 z "},"ø":{"ha":1274,"x_min":194,"x_max":1081,"o":"m 318 128 l 921 731 q 626 842 797 842 q 330 719 447 842 q 213 417 213 596 q 318 128 213 247 m 331 114 q 626 -8 449 -8 q 935 116 808 -8 q 1063 417 1063 240 q 935 717 1063 593 l 331 114 m 318 101 l 236 18 l 235 18 q 222 18 229 11 q 222 31 215 25 l 222 32 l 306 115 q 194 417 194 240 q 249 639 194 538 q 403 800 304 740 q 626 860 503 860 q 935 743 804 860 l 1003 811 q 1015 811 1008 818 q 1015 799 1022 804 l 947 731 q 1046 588 1011 669 q 1081 417 1081 507 q 948 103 1081 233 q 626 -26 815 -26 q 318 101 442 -26 z "},"ù":{"ha":1081,"x_min":194,"x_max":888,"o":"m 433 1282 q 424 1272 424 1282 q 429 1264 424 1267 l 678 1140 q 682 1139 679 1139 q 690 1149 690 1139 q 685 1157 690 1154 l 438 1281 q 433 1282 436 1282 m 204 860 q 213 850 213 860 l 213 319 q 308 88 213 183 q 540 -8 404 -8 q 772 88 676 -8 q 868 319 868 183 l 868 850 q 878 860 868 860 q 888 850 888 860 l 888 319 q 786 75 888 176 q 541 -26 685 -26 q 296 75 397 -26 q 194 319 194 176 l 194 850 q 204 860 194 860 z "},"ú":{"ha":1081,"x_min":194,"x_max":888,"o":"m 682 1282 q 690 1272 690 1282 q 686 1264 690 1267 l 438 1140 q 433 1139 436 1139 q 424 1149 424 1139 q 429 1157 424 1154 l 678 1281 q 682 1282 679 1282 m 204 860 q 213 850 213 860 l 213 319 q 308 88 213 183 q 540 -8 404 -8 q 772 88 676 -8 q 868 319 868 183 l 868 850 q 878 860 868 860 q 888 850 888 860 l 888 319 q 786 75 888 176 q 541 -26 685 -26 q 296 75 397 -26 q 194 319 194 176 l 194 850 q 204 860 194 860 z "},"û":{"ha":1081,"x_min":194,"x_max":888,"o":"m 542 1282 q 546 1281 544 1282 l 793 1157 q 799 1149 799 1154 q 790 1139 799 1139 q 785 1140 788 1139 l 542 1263 l 299 1140 q 293 1139 296 1139 q 285 1149 285 1139 q 290 1157 285 1154 l 538 1281 q 542 1282 539 1282 m 204 860 q 213 850 213 860 l 213 319 q 308 88 213 183 q 540 -8 404 -8 q 772 88 676 -8 q 868 319 868 183 l 868 850 q 878 860 868 860 q 888 850 888 860 l 888 319 q 786 75 888 176 q 541 -26 685 -26 q 296 75 397 -26 q 194 319 194 176 l 194 850 q 204 860 194 860 z "},"ü":{"ha":1081,"x_min":194,"x_max":888,"o":"m 726 1238 q 732 1232 726 1238 q 738 1210 738 1226 q 726 1183 738 1194 q 697 1171 714 1171 q 669 1183 681 1171 q 658 1211 658 1194 q 669 1239 658 1228 q 697 1250 681 1250 q 726 1238 714 1250 m 434 1238 q 440 1232 434 1238 q 446 1210 446 1226 q 434 1183 446 1194 q 405 1171 422 1171 q 377 1183 388 1171 q 367 1211 367 1194 q 377 1239 367 1228 q 405 1250 388 1250 q 434 1238 422 1250 m 204 860 q 213 850 213 860 l 213 319 q 308 88 213 183 q 540 -8 404 -8 q 772 88 676 -8 q 868 319 868 183 l 868 850 q 878 860 868 860 q 888 850 888 860 l 888 319 q 786 75 888 176 q 541 -26 685 -26 q 296 75 397 -26 q 194 319 194 176 l 194 850 q 204 860 194 860 z "},"ý":{"ha":1151,"x_min":194,"x_max":958,"o":"m 714 1282 q 722 1272 722 1282 q 718 1264 722 1267 l 469 1140 q 465 1139 468 1139 q 456 1149 456 1139 q 461 1157 456 1154 l 710 1281 q 714 1282 711 1282 m 947 860 q 957 850 957 860 q 956 844 957 847 l 585 372 l 585 -17 l 585 -18 q 576 -26 585 -26 q 567 -18 567 -26 l 567 -17 l 567 372 l 197 844 q 194 850 194 847 q 204 860 194 860 q 211 856 208 860 l 576 392 l 940 856 q 947 860 943 860 z "},"þ":{"ha":1026,"x_min":194,"x_max":833,"o":"m 204 860 q 214 850 214 860 l 214 658 l 514 658 q 719 613 636 658 q 833 417 833 550 q 719 222 833 285 q 514 175 636 175 l 214 175 l 214 -17 q 204 -26 214 -26 q 194 -17 194 -26 l 194 185 l 194 647 q 194 649 194 649 q 194 651 194 650 l 194 850 q 204 860 194 860 m 214 640 l 214 193 l 514 193 q 711 238 631 193 q 814 417 814 296 q 711 596 814 539 q 514 640 632 640 l 214 640 z "},"ÿ":{"ha":1151,"x_min":194,"x_max":958,"o":"m 745 1238 q 751 1232 745 1238 q 757 1210 757 1226 q 745 1183 757 1194 q 717 1171 733 1171 q 689 1183 700 1171 q 678 1211 678 1194 q 689 1239 678 1228 q 717 1250 700 1250 q 745 1238 733 1250 m 453 1238 q 459 1232 453 1238 q 465 1210 465 1226 q 453 1183 465 1194 q 424 1171 442 1171 q 397 1183 407 1171 q 386 1211 386 1194 q 397 1239 386 1228 q 424 1250 407 1250 q 453 1238 442 1250 m 947 860 q 957 850 957 860 q 956 844 957 847 l 585 372 l 585 -17 l 585 -18 q 576 -26 585 -26 q 567 -18 567 -26 l 567 -17 l 567 372 l 197 844 q 194 850 194 847 q 204 860 194 860 q 211 856 208 860 l 576 392 l 940 856 q 947 860 943 860 z "},"œ":{"ha":1815,"x_min":194,"x_max":1622,"o":"m 664 886 q 983 767 851 886 l 983 850 q 993 860 983 860 l 1613 860 q 1621 851 1621 860 q 1613 842 1621 842 l 1001 842 l 1001 426 l 1550 426 q 1560 417 1560 426 q 1550 407 1560 407 l 1001 407 l 1001 90 q 1001 89 1001 90 q 1001 86 1001 88 l 1001 -8 l 1613 -8 q 1621 -17 1621 -8 q 1613 -26 1621 -26 l 993 -26 q 983 -17 983 -26 l 983 67 q 664 -53 851 -53 q 328 82 463 -53 q 194 417 194 217 q 328 751 194 617 q 664 886 463 886 m 664 868 q 341 739 469 868 q 213 417 213 610 q 341 94 213 224 q 664 -35 469 -35 q 983 92 854 -35 l 983 417 l 983 742 q 664 868 854 868 z "},"ˆ":{"ha":514,"x_min":0,"x_max":515,"o":"m 257 1282 q 261 1281 260 1282 l 510 1157 q 515 1149 515 1154 q 506 1139 515 1139 q 501 1140 503 1139 l 257 1263 l 14 1140 q 10 1139 11 1139 q 0 1149 0 1139 q 6 1157 0 1154 l 253 1281 q 257 1282 256 1282 z "},"˜":{"ha":514,"x_min":0,"x_max":515,"o":"m 133 1267 q 189 1258 163 1267 q 228 1242 215 1250 q 263 1217 242 1233 q 295 1194 283 1201 q 330 1180 307 1188 q 381 1172 353 1172 q 461 1201 417 1172 l 499 1232 q 506 1235 501 1235 q 514 1225 514 1235 q 511 1218 514 1221 q 471 1186 496 1203 q 381 1154 422 1154 q 325 1163 351 1154 q 285 1179 299 1171 q 251 1203 272 1188 q 219 1226 231 1219 q 185 1241 208 1233 q 133 1249 161 1249 q 53 1219 97 1249 l 15 1189 q 10 1186 13 1186 q 0 1196 0 1186 q 3 1203 0 1200 q 43 1235 19 1219 q 133 1267 92 1267 z "},"˚":{"ha":222,"x_min":0,"x_max":224,"o":"m 110 1322 q 190 1290 157 1322 q 224 1210 224 1257 q 190 1131 224 1164 q 110 1099 157 1099 q 31 1131 63 1099 q 0 1210 0 1164 q 31 1290 0 1257 q 110 1322 63 1322 m 110 1304 q 44 1277 69 1304 q 18 1210 18 1250 q 44 1144 18 1171 q 110 1118 69 1118 q 176 1145 149 1118 q 204 1210 204 1172 q 176 1276 204 1249 q 110 1304 149 1304 z "},"˙":{"ha":78,"x_min":0,"x_max":79,"o":"m 67 1238 q 73 1232 67 1238 q 79 1210 79 1226 q 67 1183 79 1194 q 39 1171 56 1171 q 11 1183 22 1171 q 0 1211 0 1194 q 11 1239 0 1228 q 39 1250 22 1250 q 67 1238 56 1250 z "},"˘":{"ha":222,"x_min":0,"x_max":224,"o":"m 224 1276 l 224 1211 q 190 1131 224 1164 q 110 1099 157 1099 q 31 1131 63 1099 q 0 1211 0 1164 l 0 1276 l 18 1276 l 18 1211 q 44 1144 18 1171 q 110 1118 69 1118 q 176 1145 149 1118 q 204 1211 204 1172 l 204 1276 l 224 1276 z "},"’":{"ha":204,"x_min":0,"x_max":206,"o":"m 196 919 q 204 910 204 919 q 203 904 204 907 l 17 594 q 10 590 14 590 q 0 600 0 590 q 1 604 0 603 l 188 914 q 196 919 190 919 z "},"ˇ":{"ha":514,"x_min":0,"x_max":515,"o":"m 257 1139 q 261 1140 260 1139 l 510 1264 q 515 1272 515 1267 q 506 1282 515 1282 q 501 1281 503 1282 l 257 1158 l 14 1281 q 10 1282 11 1282 q 0 1272 0 1282 q 6 1264 0 1267 l 253 1140 q 257 1139 256 1139 z "},"˝":{"ha":526,"x_min":0,"x_max":528,"o":"m 257 1282 q 267 1272 267 1282 q 261 1264 267 1267 l 14 1140 q 10 1139 11 1139 q 0 1149 0 1139 q 6 1157 0 1154 l 253 1281 q 257 1282 256 1282 m 517 1282 q 526 1272 526 1282 q 521 1264 526 1267 l 274 1140 q 269 1139 271 1139 q 260 1149 260 1139 q 265 1157 260 1154 l 513 1281 q 517 1282 515 1282 z "},"—":{"ha":576,"x_min":0,"x_max":578,"o":"m 10 426 l 567 426 q 568 426 567 426 q 576 417 576 426 q 568 407 576 407 l 567 407 l 10 407 q 0 417 0 407 q 10 426 0 426 z "},"€":{"ha":1139,"x_min":194,"x_max":946,"o":"m 761 860 q 939 825 854 860 q 944 817 944 822 q 936 807 944 807 q 932 808 933 807 q 761 842 851 842 q 489 742 601 842 q 353 488 376 642 l 576 488 q 585 478 585 488 q 576 469 585 469 l 351 469 q 349 417 349 442 q 351 364 349 392 l 576 364 q 585 355 585 364 q 576 346 585 346 l 353 346 q 489 92 376 192 q 761 -8 601 -8 q 932 25 851 -8 q 936 26 933 26 q 944 17 944 26 q 939 8 944 11 q 761 -26 854 -26 q 476 79 594 -26 q 335 346 358 185 l 204 346 q 194 355 194 346 q 204 364 194 364 l 332 364 q 329 417 329 392 q 332 469 329 442 l 204 469 q 194 478 194 469 q 204 488 194 488 l 335 488 q 476 754 358 649 q 761 860 594 860 z "},"Œ":{"ha":1815,"x_min":194,"x_max":1622,"o":"m 664 886 q 983 767 851 886 l 983 850 q 993 860 983 860 l 1613 860 q 1621 851 1621 860 q 1613 842 1621 842 l 1001 842 l 1001 426 l 1550 426 q 1560 417 1560 426 q 1550 407 1560 407 l 1001 407 l 1001 90 q 1001 89 1001 90 q 1001 86 1001 88 l 1001 -8 l 1613 -8 q 1621 -17 1621 -8 q 1613 -26 1621 -26 l 993 -26 q 983 -17 983 -26 l 983 67 q 664 -53 851 -53 q 328 82 463 -53 q 194 417 194 217 q 328 751 194 617 q 664 886 463 886 m 664 868 q 341 739 469 868 q 213 417 213 610 q 341 94 213 224 q 664 -35 469 -35 q 983 92 854 -35 l 983 417 l 983 742 q 664 868 854 868 z "},"Ÿ":{"ha":1151,"x_min":194,"x_max":958,"o":"m 745 1238 q 751 1232 745 1238 q 757 1210 757 1226 q 745 1183 757 1194 q 717 1171 733 1171 q 689 1183 700 1171 q 678 1211 678 1194 q 689 1239 678 1228 q 717 1250 700 1250 q 745 1238 733 1250 m 453 1238 q 459 1232 453 1238 q 465 1210 465 1226 q 453 1183 465 1194 q 424 1171 442 1171 q 397 1183 407 1171 q 386 1211 386 1194 q 397 1239 386 1228 q 424 1250 407 1250 q 453 1238 442 1250 m 947 860 q 957 850 957 860 q 956 844 957 847 l 585 372 l 585 -17 l 585 -18 q 576 -26 585 -26 q 567 -18 567 -26 l 567 -17 l 567 372 l 197 844 q 194 850 194 847 q 204 860 194 860 q 211 856 208 860 l 576 392 l 940 856 q 947 860 943 860 z "},"ž":{"ha":1026,"x_min":194,"x_max":833,"o":"m 539 1139 q 543 1140 542 1139 l 790 1264 q 796 1272 796 1267 q 788 1282 796 1282 q 782 1281 785 1282 l 539 1158 l 296 1281 q 290 1282 293 1282 q 282 1272 282 1282 q 288 1264 282 1267 l 535 1140 q 539 1139 536 1139 m 824 860 q 833 850 833 860 q 831 844 833 847 l 222 -8 l 824 -8 q 833 -17 833 -8 q 824 -26 833 -26 l 204 -26 q 194 -17 194 -26 q 196 -11 194 -14 l 806 842 l 204 840 q 194 850 194 840 q 204 860 194 860 l 824 860 z "},"Ž":{"ha":1026,"x_min":194,"x_max":833,"o":"m 539 1139 q 543 1140 542 1139 l 790 1264 q 796 1272 796 1267 q 788 1282 796 1282 q 782 1281 785 1282 l 539 1158 l 296 1281 q 290 1282 293 1282 q 282 1272 282 1282 q 288 1264 282 1267 l 535 1140 q 539 1139 536 1139 m 824 860 q 833 850 833 860 q 831 844 833 847 l 222 -8 l 824 -8 q 833 -17 833 -8 q 824 -26 833 -26 l 204 -26 q 194 -17 194 -26 q 196 -11 194 -14 l 806 842 l 204 840 q 194 850 194 840 q 204 860 194 860 l 824 860 z "},"Š":{"ha":781,"x_min":0,"x_max":782,"o":"m 415 1139 q 419 1140 418 1139 l 667 1264 q 672 1272 672 1267 q 664 1282 672 1282 q 658 1281 661 1282 l 415 1158 l 172 1281 q 167 1282 169 1282 q 158 1272 158 1282 q 164 1264 158 1267 l 411 1140 q 415 1139 413 1139 m 411 860 q 616 828 526 860 q 760 744 706 797 q 763 738 763 742 q 754 729 763 729 q 747 732 750 729 q 609 811 696 781 q 411 842 522 842 q 133 768 242 842 q 63 697 88 736 q 39 619 39 658 q 68 543 39 576 q 149 489 94 513 q 403 425 218 460 q 660 358 590 389 q 747 301 718 335 q 782 214 782 264 q 661 36 782 106 q 401 -26 550 -26 q 185 3 288 -26 q 4 92 83 33 q 0 99 0 94 q 10 108 0 108 q 15 107 13 108 q 401 -8 169 -8 q 651 53 546 -8 q 764 214 764 117 q 733 289 764 257 q 653 342 707 319 q 399 406 585 371 q 142 472 213 442 q 54 531 83 497 q 19 619 19 568 q 47 706 19 664 q 122 783 74 749 q 411 860 236 860 z "},"š":{"ha":781,"x_min":0,"x_max":782,"o":"m 415 1139 q 419 1140 418 1139 l 667 1264 q 672 1272 672 1267 q 664 1282 672 1282 q 658 1281 661 1282 l 415 1158 l 172 1281 q 167 1282 169 1282 q 158 1272 158 1282 q 164 1264 158 1267 l 411 1140 q 415 1139 413 1139 m 411 860 q 616 828 526 860 q 760 744 706 797 q 763 738 763 742 q 754 729 763 729 q 747 732 750 729 q 609 811 696 781 q 411 842 522 842 q 133 768 242 842 q 63 697 88 736 q 39 619 39 658 q 68 543 39 576 q 149 489 94 513 q 403 425 218 460 q 660 358 590 389 q 747 301 718 335 q 782 214 782 264 q 661 36 782 106 q 401 -26 550 -26 q 185 3 288 -26 q 4 92 83 33 q 0 99 0 94 q 10 108 0 108 q 15 107 13 108 q 401 -8 169 -8 q 651 53 546 -8 q 764 214 764 117 q 733 289 764 257 q 653 342 707 319 q 399 406 585 371 q 142 472 213 442 q 54 531 83 497 q 19 619 19 568 q 47 706 19 664 q 122 783 74 749 q 411 860 236 860 z "},"ł":{"ha":1026,"x_min":-25,"x_max":833,"o":"m 204 860 q 213 850 213 860 l 213 408 l 489 538 q 501 533 497 542 q 497 521 506 525 l 213 389 l 213 -8 l 824 -8 q 833 -17 833 -8 q 824 -26 833 -26 l 204 -26 q 194 -17 194 -26 l 194 379 l -8 285 q -21 289 -17 281 q -17 301 -25 297 l 194 400 l 194 850 q 204 860 194 860 z "},"Ł":{"ha":1026,"x_min":-25,"x_max":833,"o":"m 204 860 q 213 850 213 860 l 213 408 l 489 538 q 501 533 497 542 q 497 521 506 525 l 213 389 l 213 -8 l 824 -8 q 833 -17 833 -8 q 824 -26 833 -26 l 204 -26 q 194 -17 194 -26 l 194 379 l -8 285 q -21 289 -17 281 q -17 301 -25 297 l 194 400 l 194 850 q 204 860 194 860 z "},"":{"ha":1151,"x_min":193,"x_max":958,"o":"m 947 860 q 957 850 957 860 l 957 -17 q 952 -25 957 -22 q 943 -25 947 -28 q 939 -17 939 -22 l 939 253 l 447 253 l 211 -24 q 202 -26 207 -28 q 195 -20 197 -25 q 197 -11 193 -15 l 940 857 q 947 860 943 860 m 939 825 l 464 271 l 939 271 l 939 825 z "},"":{"ha":1150,"x_min":194,"x_max":957,"o":"m 575 860 q 585 854 582 860 l 956 -14 q 957 -17 957 -15 q 947 -26 957 -26 l 204 -26 q 194 -17 194 -26 q 196 -14 194 -15 l 567 854 q 575 860 569 860 m 575 826 l 218 -8 l 933 -8 l 575 826 z "},"":{"ha":1150,"x_min":194,"x_max":957,"o":"m 575 860 q 585 854 582 860 l 956 -14 q 957 -17 957 -15 q 947 -26 957 -26 q 939 -21 942 -26 l 822 253 l 329 253 l 213 -21 q 204 -26 210 -26 q 194 -17 194 -26 q 196 -14 194 -15 l 567 854 q 575 860 569 860 m 575 826 l 338 271 l 814 271 l 575 826 z "},"":{"ha":1151,"x_min":193,"x_max":958,"o":"m 204 860 q 194 850 194 860 l 194 -17 q 199 -25 194 -22 q 209 -25 204 -28 q 213 -17 214 -22 l 213 253 l 704 253 l 940 -24 q 949 -26 944 -28 q 956 -20 954 -25 q 954 -11 958 -15 l 211 857 q 204 860 208 860 m 213 825 l 688 271 l 213 271 l 213 825 z "},"":{"ha":1025,"x_min":194,"x_max":832,"o":"m 203 860 l 493 860 q 693 825 619 860 q 800 656 800 776 q 693 479 800 535 q 604 450 656 460 q 718 417 672 440 q 832 217 832 357 q 718 17 832 76 q 513 -26 640 -26 l 203 -26 q 194 -17 194 -26 l 194 850 q 203 860 194 860 m 213 842 l 213 457 l 493 457 q 685 494 611 457 q 783 656 783 544 q 686 810 783 764 q 493 842 615 842 l 213 842 m 213 439 l 213 -8 l 513 -8 q 710 32 636 -8 q 814 217 814 88 q 710 401 814 347 q 513 439 638 439 l 493 439 l 213 439 z "},"":{"ha":1026,"x_min":194,"x_max":833,"o":"m 204 860 l 328 860 q 722 733 594 860 q 833 417 833 622 q 722 100 833 211 q 328 -26 594 -26 l 204 -26 q 194 -17 194 -26 l 194 850 q 204 860 194 860 m 328 842 l 213 842 l 213 -8 l 328 -8 q 708 114 588 -8 q 814 417 814 219 q 708 719 814 614 q 328 842 588 842 z "},"":{"ha":1026,"x_min":193,"x_max":833,"o":"m 204 860 l 824 860 q 833 851 833 860 q 824 842 833 842 l 213 842 l 213 426 l 761 426 q 771 417 771 426 q 761 407 771 407 l 213 407 l 213 -8 l 824 -8 q 833 -17 833 -8 q 824 -26 833 -26 l 204 -26 q 194 -17 194 -26 l 194 850 q 204 860 194 860 z "},"":{"ha":1026,"x_min":194,"x_max":833,"o":"m 204 860 l 824 860 q 833 851 833 860 q 824 842 833 842 l 233 842 l 829 424 q 833 417 833 422 q 824 407 833 407 l 233 407 l 829 -10 q 833 -17 833 -12 q 824 -26 833 -26 q 818 -25 821 -26 l 199 410 q 194 417 194 413 q 204 426 194 426 l 794 426 l 199 843 q 194 850 194 846 q 204 860 194 860 z "},"":{"ha":1026,"x_min":194,"x_max":833,"o":"m 204 860 l 824 860 q 833 851 833 860 q 824 842 833 842 l 213 842 l 213 426 l 761 426 q 771 417 771 426 q 761 407 771 407 l 213 407 l 213 -17 q 203 -26 213 -26 q 194 -17 194 -26 l 194 850 q 204 860 194 860 z "},"":{"ha":1026,"x_min":194,"x_max":833,"o":"m 204 860 l 824 860 q 833 851 833 860 q 824 842 833 842 l 233 842 l 829 424 q 833 417 833 421 q 824 407 833 407 l 213 407 l 213 -17 q 203 -26 213 -26 q 194 -17 194 -26 l 194 417 q 204 426 194 426 l 794 426 l 199 843 q 194 850 194 846 q 204 860 194 860 z "},"":{"ha":1065,"x_min":193,"x_max":874,"o":"m 204 860 q 213 850 213 860 l 213 314 l 817 857 q 824 860 819 860 q 833 853 831 860 q 829 843 835 847 l 375 433 l 868 -10 q 871 -19 872 -14 q 865 -26 869 -25 q 856 -24 860 -28 l 361 421 l 213 289 l 213 -17 q 208 -26 213 -24 q 199 -26 204 -28 q 194 -17 194 -24 l 194 850 q 204 860 194 860 z "},"":{"ha":1026,"x_min":194,"x_max":833,"o":"m 194 850 q 203 860 194 860 q 213 850 213 860 l 213 435 l 818 858 q 824 860 821 860 q 833 850 833 860 q 829 843 833 846 l 219 417 l 829 -10 q 833 -17 833 -12 q 824 -26 833 -26 q 818 -25 821 -26 l 213 399 l 213 -17 q 203 -26 213 -26 q 194 -17 194 -26 l 194 850 z "},"":{"ha":1026,"x_min":194,"x_max":833,"o":"m 514 860 q 522 850 522 860 q 522 847 522 849 l 217 -8 l 824 -8 q 833 -17 833 -8 q 824 -26 833 -26 l 204 -26 q 194 -17 194 -26 q 194 -14 194 -15 l 504 854 q 514 860 507 860 z "},"":{"ha":1646,"x_min":194,"x_max":1453,"o":"m 824 860 q 833 850 833 860 l 833 13 l 1436 856 q 1443 860 1439 860 q 1453 850 1453 860 l 1453 -17 q 1443 -26 1453 -26 q 1433 -17 1433 -26 l 1433 821 l 831 -22 q 824 -26 828 -26 q 814 -17 814 -26 l 814 822 l 211 -22 q 204 -26 208 -26 q 194 -17 194 -26 q 196 -11 194 -14 l 815 856 q 824 860 818 860 z "},"":{"ha":1275,"x_min":194,"x_max":1082,"o":"m 203 860 l 204 860 q 211 857 208 860 l 638 369 l 1064 857 q 1071 860 1067 860 q 1081 850 1081 860 l 1081 -17 q 1072 -26 1081 -26 q 1063 -17 1063 -26 l 1063 826 l 644 349 q 638 346 642 346 q 631 349 633 346 l 213 826 l 213 -17 q 203 -26 213 -26 q 194 -17 194 -26 l 194 850 q 203 860 194 860 z "},"":{"ha":1646,"x_min":194,"x_max":1453,"o":"m 824 860 q 814 850 814 860 l 814 13 l 211 856 q 204 860 208 860 q 194 850 194 860 l 194 -17 q 203 -26 194 -26 q 213 -17 213 -26 l 213 821 l 815 -22 q 824 -26 818 -26 q 833 -17 833 -26 l 833 822 l 1436 -22 q 1443 -26 1439 -26 q 1453 -17 1453 -26 q 1450 -11 1453 -14 l 831 856 q 824 860 828 860 z "},"":{"ha":1026,"x_min":193,"x_max":833,"o":"m 204 860 l 514 860 q 719 814 636 860 q 833 619 833 751 q 719 424 833 486 q 514 376 636 376 l 213 376 l 213 -17 q 209 -26 214 -24 q 199 -26 204 -28 q 194 -17 194 -24 l 194 850 q 204 860 194 860 m 213 842 l 213 394 l 514 394 q 711 440 631 394 q 814 619 814 497 q 711 797 814 740 q 514 842 631 842 l 213 842 z "},"":{"ha":1274,"x_min":194,"x_max":1081,"o":"m 626 860 q 948 730 815 860 q 1081 417 1081 600 q 951 107 1081 236 q 636 -26 822 -22 l 636 -203 q 627 -212 636 -212 q 618 -203 618 -212 l 618 -26 q 314 106 433 -22 q 194 417 194 233 q 249 639 194 538 q 403 800 304 740 q 626 860 503 860 m 626 842 q 330 719 447 842 q 213 417 213 596 q 327 118 213 240 q 618 -7 442 -4 l 618 231 q 627 240 618 240 q 636 231 636 240 l 636 -7 q 939 119 815 -4 q 1063 417 1063 243 q 935 717 1063 593 q 626 842 808 842 z "},"":{"ha":1026,"x_min":194,"x_max":833,"o":"m 204 860 l 514 860 q 719 814 636 860 q 833 619 833 751 q 719 424 833 486 q 561 379 654 386 l 832 -11 q 833 -17 833 -14 q 824 -26 833 -26 q 817 -22 819 -26 l 539 378 q 514 376 526 376 l 214 376 l 214 -17 q 204 -26 214 -26 q 194 -17 194 -26 l 194 386 q 204 394 194 394 l 514 394 q 711 440 631 394 q 814 619 814 497 q 711 797 814 740 q 514 842 632 842 l 204 842 q 194 851 194 842 q 204 860 194 860 z "},"":{"ha":1026,"x_min":194,"x_max":833,"o":"m 204 860 l 514 860 q 719 814 636 860 q 833 619 833 751 q 719 424 833 486 q 561 379 654 386 l 831 -11 q 833 -17 833 -14 q 824 -26 833 -26 q 815 -22 818 -26 l 539 378 q 514 376 526 376 l 213 376 l 213 -17 q 203 -26 213 -26 q 194 -17 194 -26 l 194 385 q 194 385 194 385 q 194 388 194 386 l 194 850 q 204 860 194 860 m 213 842 l 213 394 l 514 394 q 711 440 631 394 q 814 619 814 497 q 711 797 814 740 q 514 842 632 842 l 213 842 z "},"":{"ha":1089,"x_min":194,"x_max":896,"o":"m 204 860 l 514 860 q 719 814 636 860 q 833 619 833 751 q 732 431 833 494 q 554 379 661 386 l 893 -11 q 894 -17 894 -14 q 886 -26 894 -26 q 879 -24 882 -26 l 531 378 q 528 385 528 381 q 528 388 528 386 q 538 396 529 396 q 721 446 649 400 q 814 619 814 504 q 711 797 814 740 q 514 842 632 842 l 204 842 q 194 851 194 842 q 204 860 194 860 z "},"":{"ha":1151,"x_min":192,"x_max":958,"o":"m 939 850 q 943 858 939 856 q 952 858 947 861 q 957 850 957 856 l 957 -17 q 947 -26 957 -26 q 940 -24 943 -26 l 197 844 q 195 853 193 849 q 202 860 197 858 q 211 857 207 861 l 939 8 l 939 850 z "},"":{"ha":1151,"x_min":193,"x_max":960,"o":"m 213 850 q 209 858 214 856 q 199 858 204 861 q 194 850 194 856 l 194 -17 q 204 -26 194 -26 q 211 -24 208 -26 l 954 844 q 956 853 958 849 q 949 860 954 858 q 940 857 944 861 l 213 8 l 213 850 z "},"":{"ha":1646,"x_min":194,"x_max":1453,"o":"m 194 850 q 203 860 194 860 q 213 850 213 860 l 213 13 l 815 856 q 824 860 818 860 q 833 850 833 860 l 833 13 l 1436 856 q 1443 860 1439 860 q 1453 850 1453 860 q 1450 844 1453 847 l 831 -22 q 824 -26 828 -26 q 814 -17 814 -26 l 814 821 l 211 -22 q 204 -26 208 -26 q 194 -17 194 -26 l 194 850 z "},"":{"ha":1894,"x_min":194,"x_max":1701,"o":"m 204 860 q 213 854 210 860 l 575 7 l 939 854 q 948 860 942 860 q 956 854 954 860 l 1319 7 l 1682 854 q 1690 860 1685 860 q 1700 850 1700 860 q 1700 847 1700 849 l 1328 -21 q 1319 -26 1325 -26 q 1311 -21 1313 -26 l 947 826 l 585 -21 q 576 -26 582 -26 q 567 -21 569 -26 l 196 847 q 194 850 194 849 q 204 860 194 860 z "},"":{"ha":1646,"x_min":194,"x_max":1453,"o":"m 1453 850 q 1443 860 1453 860 q 1433 850 1433 860 l 1433 13 l 831 856 q 824 860 828 860 q 814 850 814 860 l 814 13 l 211 856 q 204 860 208 860 q 194 850 194 860 q 196 844 194 847 l 815 -22 q 824 -26 818 -26 q 833 -17 833 -26 l 833 821 l 1436 -22 q 1443 -26 1439 -26 q 1453 -17 1453 -26 l 1453 850 z "},"":{"ha":1035,"x_min":194,"x_max":842,"o":"m 213 860 q 203 850 203 860 q 204 844 203 847 l 814 -8 l 204 -8 q 194 -17 194 -8 q 204 -26 194 -26 l 832 -26 q 842 -17 842 -26 q 839 -11 842 -14 l 231 842 l 832 840 q 842 850 842 840 q 832 860 842 860 l 213 860 z "}}}
